<?xml version="1.0" encoding="UTF-8"?>
<svg width="80px" height="90px" viewBox="0 0 80 90" version="1.1" xmlns="http://www.w3.org/2000/svg" xmlns:xlink="http://www.w3.org/1999/xlink">
    <!-- Generator: Sketch 61.2 (89653) - https://sketch.com -->
    <title>Dance</title>
    <desc>Created with Sketch.</desc>
    <g id="Logo" stroke="none" stroke-width="1" fill="none" fill-rule="evenodd">
        <g id="Home" transform="translate(-926.000000, -3173.000000)">
            <g id="Dance" transform="translate(926.000000, 3173.000000)">
                <g id="Group-17" transform="translate(1.000000, 1.000000)">
                    <path d="M70.7271385,50.0621517 L59.4681192,4.75277241 C59.1901,3.63911724 58.0233308,2.74697931 56.8732731,2.77222689 L56.1987346,2.78794483 C55.4254462,2.80615172 54.7433115,3.29925517 54.4835231,4.02904828 C50.0428115,16.3824276 40.7618308,26.2627034 28.9619654,31.5411862 C25.9295808,32.8976 22.5234654,33.6820138 19.4211962,34.9382897 C16.0773692,36.291669 12.7791192,37.8180138 9.80598462,39.8784276 C5.6281,42.7733241 2.07461923,46.883531 0.882023077,51.8221517 C0.105696154,55.0462897 0.368523077,58.4388414 1.00963846,61.6902897 C1.38185,63.5883586 3.02413846,70.819531 3.97517692,72.2851862 C5.06750385,73.9769103 6.76448462,75.2240828 8.65592692,75.759669 C9.12840769,75.8962207 9.61000385,75.9887724 10.0961577,76.0373241 C10.3392346,76.0616 10.5807923,76.0752552 10.8238692,76.0767724 L11.0046577,76.0782897 L11.1505038,76.0752552 L11.4315615,76.0661517 L13.66635,76.0009103 C16.6470808,75.9189793 19.6278115,75.8203586 22.6100615,75.7187034 C23.2526962,75.6959448 23.7965808,75.1922207 23.8482346,74.5352552 C23.9014077,73.8297379 23.3711962,73.2137379 22.6647538,73.1591172 C19.6901,72.9300138 16.7154462,72.7039448 13.7407923,72.4945655 L13.7347154,72.4945655 C11.2644462,72.315531 8.69694615,72.3656 7.61981154,69.6360828 C7.06833077,68.2387034 5.60531154,58.2886345 6.30567692,54.9051862 C7.16404231,50.7540138 10.5291385,47.5056 14.2846769,45.5271172 C18.3167154,43.4029793 23.5671769,41.5307034 28.1020808,40.9344276 C41.8511192,39.1273931 55.7976577,43.3574621 66.2438885,52.6551172 C66.9138692,53.2529103 67.8269269,53.5366345 68.7035231,53.3378759 C70.1832538,53.0040828 71.0902346,51.5247724 70.7271385,50.0621517" id="Fill-1" fill="#FFE87F"></path>
                    <path d="M65.3964615,73.0823448 L19.4625192,73.0823448 L19.4625192,61.0915862 C19.4625192,58.972 21.1822885,57.2529655 23.3046538,57.2529655 L61.5528077,57.2529655 C63.6751731,57.2529655 65.3964615,58.972 65.3964615,61.0915862 L65.3964615,73.0823448 Z" id="Fill-3" fill="#BFAB9D"></path>
                    <path d="M61.5525038,57.2535724 L52.5601769,57.2535724 C54.6840615,57.2535724 56.4023115,58.9710897 56.4023115,61.0921931 L56.4023115,73.0829517 L65.3961577,73.0829517 L65.3961577,61.0921931 C65.3961577,58.9710897 63.6748692,57.2535724 61.5525038,57.2535724" id="Fill-5" fill="#BCA798"></path>
                    <path d="M72.3101769,83.6082069 L12.5481962,83.6082069 L12.5481962,65.0037931 C12.5481962,63.4911034 13.7757346,62.2651724 15.2919269,62.2651724 L69.5679654,62.2651724 C71.0811192,62.2651724 72.3101769,63.4911034 72.3101769,65.0037931 L72.3101769,83.6082069 Z" id="Fill-7" fill="#CDB6A6"></path>
                    <path d="M69.5684212,62.2653241 L60.5760942,62.2653241 C62.0892481,62.2653241 63.3183058,63.4912552 63.3183058,65.0039448 L63.3183058,83.6083586 L72.3106327,83.6083586 L72.3106327,65.0039448 C72.3106327,63.4912552 71.081575,62.2653241 69.5684212,62.2653241" id="Fill-9" fill="#BCA798"></path>
                    <path d="M75.4852173,87.0019724 L9.37285192,87.0019724 C8.43700577,87.0019724 7.67890962,86.244869 7.67890962,85.3102483 L7.67890962,84.0645931 C7.67890962,83.1299724 8.43700577,82.372869 9.37285192,82.372869 L75.4852173,82.372869 C76.4210635,82.372869 77.1791596,83.1299724 77.1791596,84.0645931 L77.1791596,85.3102483 C77.1791596,86.244869 76.4210635,87.0019724 75.4852173,87.0019724" id="Fill-11" fill="#D4BBAA"></path>
                    <path d="M44.9195096,67.4022483 C43.7481827,67.4022483 42.7059904,67.9514897 42.0360096,68.8072138 C41.3645096,67.9514897 40.3223173,67.4022483 39.1509904,67.4022483 C37.1288942,67.4022483 35.4896442,69.0393517 35.4896442,71.0588 C35.4896442,75.6514897 42.0360096,78.2095586 42.0360096,78.2095586 C42.0360096,78.2095586 48.5793376,75.6514897 48.5793376,71.0588 C48.5808558,69.0393517 46.9416058,67.4022483 44.9195096,67.4022483" id="Fill-13" fill="#FDD8E7"></path>
                    <path d="M71.875525,51.8373241 L59.6001404,2.44656552 C59.1884288,0.789737931 57.5203135,-0.231365517 55.8537173,0.154013793 C55.8324481,0.158565517 55.8111788,0.163117241 55.7883904,0.167668966 C54.0853327,0.562151724 53.0355442,2.2736 53.4563712,3.96835862 L65.7302365,53.3591172 C66.1434673,55.0159448 67.8085442,56.0385655 69.4751404,55.6531862 C69.4979288,55.6486345 69.5176788,55.6425655 69.5404673,55.6380138 C71.243525,55.2450483 72.2948327,53.5320828 71.875525,51.8373241" id="Fill-15" fill="#FFE153"></path>
                </g>
                <g id="Group-22">
                    <path d="M77.1671717,83.87388 L69.6005491,83.87388 L69.6005491,88.4860633 L76.9425113,88.4860633 C77.8839453,88.4860633 78.6465679,87.7292467 78.6465679,86.79498 L78.6465679,85.54828 C78.6465679,84.6913633 78.0016245,83.98308 77.1671717,83.87388" id="Fill-18" fill="#BCA798"></path>
                    <path d="M77.3313113,86.7946767 C77.3313113,87.0085267 77.1570849,87.1814267 76.9415943,87.1814267 L10.4360094,87.1814267 C10.2205189,87.1814267 10.0447642,87.0085267 10.0447642,86.7946767 L10.0447642,85.5494933 C10.0447642,85.3356433 10.2205189,85.1627433 10.4360094,85.1627433 L55.8326887,85.1627433 C56.5571038,85.1627433 57.1455,84.5788267 57.1455,83.85841 C57.1455,83.1364767 56.5571038,82.55256 55.8326887,82.55256 L14.9429717,82.55256 L14.9429717,66.49561 C14.9429717,65.7054267 15.5925,65.06236 16.3887453,65.06236 L70.9903868,65.06236 C71.7851038,65.06236 72.4331038,65.7054267 72.4331038,66.49561 L72.4331038,82.55256 L61.955066,82.55256 C61.2291226,82.55256 60.6407264,83.1364767 60.6407264,83.85841 C60.6407264,84.5788267 61.2291226,85.1627433 61.955066,85.1627433 L76.9415943,85.1627433 C77.1570849,85.1627433 77.3313113,85.3356433 77.3313113,85.5494933 L77.3313113,86.7946767 Z M12.0667075,76.2614267 L11.9016509,76.25991 C11.7029717,76.2583933 11.4997075,76.2477767 11.2933868,76.2265433 C10.8822736,76.1855933 10.4726887,76.1082433 10.0722736,75.9929767 C8.46908491,75.5425267 7.02483962,74.4747933 6.10633019,73.0642933 C5.41553774,72.0071767 3.88112264,65.8161433 3.30953774,62.93296 C2.58512264,59.2717267 2.53927358,56.22626 3.17199057,53.6251767 C4.17761321,49.47861 7.17766981,45.5094933 11.6204434,42.4503767 C14.7488774,40.2951933 18.296066,38.75426 21.0363113,37.6501267 C22.4026132,37.1010933 23.8728396,36.62941 25.2987453,36.17441 C27.0883868,35.60111 28.9391604,35.0080933 30.6783679,34.23611 C36.4966132,31.6486767 41.6943679,28.0223267 46.1203302,23.4586767 C49.6705755,19.7959267 52.594217,15.6660433 54.8408208,11.14031 L64.566934,50.0306767 C54.3731604,42.7279267 41.6546321,39.5034933 29.104217,41.14301 C24.6751981,41.7223767 19.3139151,43.49081 14.7626321,45.8734933 C10.0799151,48.3244267 6.90868868,52.0645267 6.06048113,56.1367767 C5.29633019,59.80256 6.8429717,70.08101 7.44665094,71.60526 C8.4645,74.1699433 10.6270472,74.8509267 12.3142925,75.0844933 L12.3142925,76.25536 L12.0667075,76.2614267 Z M56.2743679,3.77689333 C56.5326509,3.35829333 56.9407075,3.06709333 57.4282358,2.95486 L57.4908962,2.93969333 C57.6269151,2.90936 57.7644623,2.89419333 57.8989528,2.89419333 C58.7242358,2.89419333 59.479217,3.45232667 59.687066,4.27587667 L72.034217,53.6479267 C72.1534245,54.1256767 72.0770094,54.62011 71.8171981,55.03871 C71.5573868,55.4588267 71.1478019,55.7515433 70.6602736,55.86226 L70.5991415,55.8774267 C69.6286698,56.09886 68.6444434,55.4997767 68.4045,54.5412433 L68.0392358,53.0791767 L68.0392358,53.0791767 L56.4745755,6.83146 L56.4730472,6.83146 L56.0573491,5.16919333 C55.9381415,4.69144333 56.0160849,4.19701 56.2743679,3.77689333 L56.2743679,3.77689333 Z M76.9415943,82.55256 L75.0633113,82.55256 L75.0633113,66.49561 C75.0633113,64.26611 73.2354623,62.4536933 70.9903868,62.4536933 L68.1034245,62.4536933 C68.0331226,59.67971 65.7376132,57.4441433 62.9255377,57.4441433 L44.6073113,57.4441433 L44.6073113,55.3374933 C44.6073113,54.6170767 44.0189151,54.03316 43.2929717,54.03316 C42.5670283,54.03316 41.9771038,54.6170767 41.9771038,55.3374933 L41.9771038,57.4441433 L34.334066,57.4441433 C33.6096509,57.4441433 33.0197264,58.02806 33.0197264,58.7484767 C33.0197264,59.4688933 33.6096509,60.05281 34.334066,60.05281 L62.9255377,60.05281 C64.288783,60.05281 65.4044434,61.11751 65.473217,62.4536933 L21.9013302,62.4536933 C21.9716321,61.11751 23.0888208,60.05281 24.4490094,60.05281 L28.3324245,60.05281 C29.0583679,60.05281 29.6482925,59.4688933 29.6482925,58.7484767 C29.6482925,58.02806 29.0583679,57.4441433 28.3324245,57.4441433 L24.4490094,57.4441433 C21.6399906,57.4441433 19.3444811,59.67971 19.2741792,62.4536933 L16.3887453,62.4536933 C14.1406132,62.4536933 12.3142925,64.26611 12.3142925,66.49561 L12.3142925,72.43791 C11.0702547,72.2088933 10.3305566,71.7493433 9.89346226,70.6482433 C9.41968868,69.4591767 7.98919811,59.76161 8.63566981,56.6645767 C9.32340566,53.3582433 12.0040472,50.26576 15.9883302,48.1803433 C20.2156132,45.9675267 25.3736321,44.2627933 29.4480849,43.7289267 C42.4080849,42.0378433 55.556066,45.82496 65.5908962,54.1256767 L65.8522358,55.1691433 C66.3535189,57.1741767 68.1935943,58.53311 70.1941415,58.53311 C70.5227264,58.53311 70.8574245,58.49671 71.1875377,58.41936 L71.2563113,58.4041933 C72.4331038,58.1342267 73.4265,57.42291 74.0576887,56.4021933 C74.6888774,55.3829933 74.8768585,54.1802767 74.5864811,53.0200267 L62.2378019,3.64797667 C61.6539906,1.31382667 59.2591415,-0.142173333 56.9040283,0.39776 L56.8321981,0.412926667 C55.656934,0.68441 54.6635377,1.39269333 54.0338774,2.41341 C53.4026887,3.43412667 53.2162358,4.63532667 53.5050849,5.79709333 L53.8168585,7.04379333 C51.5671981,12.4886267 48.3424811,17.4026267 44.2267642,21.6477767 C40.0346321,25.9702767 35.1150283,29.4055267 29.6039717,31.8549433 C27.9977264,32.5692933 26.2936698,33.1137767 24.4933302,33.6916267 C23.0231038,34.1617933 21.5039717,34.6471267 20.0505566,35.23256 C17.1834623,36.3867433 13.4635755,38.0065433 10.1211792,40.3073267 C5.15114151,43.73196 1.77512264,48.2440433 0.616669811,53.01396 C-0.106216981,55.98966 -0.068009434,59.3991267 0.732820755,63.4349767 C0.751160377,63.52446 2.62027358,72.5228433 3.90099057,74.48086 C5.15725472,76.41461 7.14557547,77.8812267 9.3524434,78.5015433 C9.89957547,78.65776 10.4650472,78.76696 11.025934,78.82156 C11.3132547,78.8518933 11.6021038,78.86706 11.8878962,78.8685767 L12.0712925,78.8700933 L12.0774057,78.8700933 L12.1064434,78.8700933 L12.3142925,78.8640267 L12.3142925,82.55256 L10.4360094,82.55256 C8.77016038,82.55256 7.41608491,83.8963267 7.41608491,85.5494933 L7.41608491,86.7946767 C7.41608491,88.4463267 8.77016038,89.7900933 10.4360094,89.7900933 L76.9415943,89.7900933 C78.6059151,89.7900933 79.9615189,88.4463267 79.9615189,86.7946767 L79.9615189,85.5494933 C79.9615189,83.8978433 78.6059151,82.55256 76.9415943,82.55256 L76.9415943,82.55256 Z" id="Fill-20" fill="#9D9498"></path>
                </g>
                <path d="M43.0100609,77.3564804 C41.6201025,76.7316218 37.663829,74.6982583 37.663829,71.8077358 C37.663829,70.5506673 38.7395763,69.5273694 40.0629777,69.5273694 C40.804392,69.5273694 41.4947277,69.8478851 41.9513398,70.4036417 C42.2036374,70.7094549 42.5905969,70.8888261 43.0007739,70.8888261 C43.4094031,70.8888261 43.7963626,70.7094549 44.050208,70.4036417 C44.508368,69.8478851 45.1971558,69.5273694 45.940118,69.5273694 C47.2619716,69.5273694 48.3377189,70.5506673 48.3377189,71.8077358 C48.3377189,74.471839 44.8550837,76.5478399 43.0100609,77.3564804 M45.940118,67 C44.8674664,67 43.8474412,67.3146347 43.0007739,67.8895046 C42.1541066,67.3146347 41.1340815,67 40.0629777,67 C37.2706781,67 35,69.1553947 35,71.8077358 C35,77.0609591 42.2082809,79.8000452 42.5163007,79.9132549 C42.6710845,79.9720651 42.8367031,80 43.0007739,80 C43.1663926,80 43.3304634,79.9720651 43.486795,79.9132549 C43.7932669,79.8000452 51,77.0609591 51,71.8077358 C51,69.1553947 48.7308697,67 45.940118,67" id="Fill-23" fill="#9D9498"></path>
            </g>
        </g>
    </g>
</svg>