<?xml version="1.0" encoding="UTF-8"?>
<svg width="45px" height="49px" viewBox="0 0 45 49" version="1.1" xmlns="http://www.w3.org/2000/svg" xmlns:xlink="http://www.w3.org/1999/xlink">
    <!-- Generator: Sketch 61.2 (89653) - https://sketch.com -->
    <title>Gift</title>
    <desc>Created with Sketch.</desc>
    <defs>
        <polygon id="path-1" points="0 0.656 44.2129 0.656 44.2129 49 0 49"></polygon>
    </defs>
    <g id="Logo" stroke="none" stroke-width="1" fill="none" fill-rule="evenodd">
        <g id="FAQ" transform="translate(-463.000000, -1736.000000)">
            <g id="Gift" transform="translate(463.000000, 1735.000000)">
                <polygon id="Fill-1" fill="#F6DB60" points="1 22.5362 43.213 22.5362 43.213 14.0342 1 14.0342"></polygon>
                <polygon id="Fill-2" fill="#FFE87F" points="4.101 48.3442 40.312 48.3442 40.312 22.3462 4.101 22.3462"></polygon>
                <polygon id="Fill-3" fill="#F6DB60" points="37.106 48.3442 40.294 48.3442 40.294 22.6812 37.106 22.6812"></polygon>
                <polygon id="Fill-4" fill="#FF8585" points="17.159 22.5362 27.343 22.5362 27.343 14.0742 17.159 14.0742"></polygon>
                <polygon id="Fill-5" fill="#FF8585" points="18.048 35.1702 26.521 35.1702 26.521 22.6152 18.048 22.6152"></polygon>
                <g id="Group-17" transform="translate(0.000000, 0.344200)">
                    <path d="M10.7139,7.7119 C10.7139,11.1319 15.3769,13.9059 10.2139,13.9059 C7.7639,13.9059 5.7779,11.1319 5.7779,7.7119 C5.7779,4.2909 7.7639,1.5179 10.2139,1.5179 C15.2249,1.5179 10.7139,4.2909 10.7139,7.7119" id="Fill-6" fill="#FF8585"></path>
                    <path d="M34.291,7.7119 C34.291,11.1319 29.627,13.9059 34.791,13.9059 C37.24,13.9059 39.227,11.1319 39.227,7.7119 C39.227,4.2909 37.24,1.5179 34.791,1.5179 C29.78,1.5179 34.291,4.2909 34.291,7.7119" id="Fill-8" fill="#FF8585"></path>
                    <polygon id="Fill-10" fill="#FF8585" points="22.3252 12.3989 18.7002 14.8389 11.9332 4.7879 15.5582 2.3469"></polygon>
                    <polygon id="Fill-12" fill="#FF8585" points="22.7773 12.3989 26.4033 14.8389 33.1703 4.7879 29.5443 2.3469"></polygon>
                    <g id="Group-16">
                        <mask id="mask-2" fill="white">
                            <use xlink:href="#path-1"></use>
                        </mask>
                        <g id="Clip-15"></g>
                        <path d="M42.2129,21.1924 L40.3119,21.1924 L28.3429,21.1924 L28.3429,14.6904 L42.2129,14.6904 L42.2129,21.1924 Z M39.3119,42.6174 L36.0579,42.6174 C35.5049,42.6174 35.0579,43.0654 35.0579,43.6174 C35.0579,44.1704 35.5049,44.6174 36.0579,44.6174 L39.3119,44.6174 L39.3119,47.0004 L5.1009,47.0004 L5.1009,44.6174 L30.7479,44.6174 C31.3009,44.6174 31.7479,44.1704 31.7479,43.6174 C31.7479,43.0654 31.3009,42.6174 30.7479,42.6174 L5.1009,42.6174 L5.1009,23.1924 L17.0139,23.1924 L17.1509,23.1924 L17.1509,36.7694 C17.1509,37.1474 17.3629,37.4934 17.7009,37.6634 C17.8429,37.7344 17.9969,37.7694 18.1509,37.7694 C18.3609,37.7694 18.5709,37.7024 18.7459,37.5724 L22.2019,35.0064 L25.6049,37.5684 C25.9069,37.7974 26.3129,37.8334 26.6519,37.6644 C26.9909,37.4954 27.2059,37.1484 27.2059,36.7694 L27.2059,23.1924 L27.3429,23.1924 L39.3119,23.1924 L39.3119,42.6174 Z M1.9999,14.6904 L16.0139,14.6904 L16.0139,21.1924 L4.1009,21.1924 L1.9999,21.1924 L1.9999,14.6904 Z M7.8629,4.1244 C9.0249,3.0754 10.6019,2.5964 12.2969,2.7694 C12.3579,2.7754 12.4159,2.7964 12.4769,2.8044 C11.0249,4.0194 10.3049,5.6344 10.3049,7.7124 C10.3049,9.5404 11.1549,11.2674 12.6089,12.5954 C9.4199,12.5054 6.1009,10.7094 6.1009,8.0604 C6.1009,6.5694 6.7429,5.1344 7.8629,4.1244 L7.8629,4.1244 Z M20.8979,12.6514 C19.9239,12.6204 18.7319,12.6074 17.5039,12.6024 C16.3229,9.9994 14.7759,7.5514 12.8909,5.3174 C13.2809,4.6724 13.8829,4.1484 14.7139,3.6934 C17.9129,5.7704 20.3839,10.7074 20.8979,12.6514 L20.8979,12.6514 Z M30.3899,3.6154 C31.2209,4.0694 31.8219,4.5944 32.2129,5.2394 C30.3269,7.4724 28.7789,9.9214 27.5999,12.5244 C26.3719,12.5284 25.1799,12.5424 24.2059,12.5734 C24.7199,10.6294 27.1899,5.6924 30.3899,3.6154 L30.3899,3.6154 Z M33.4839,2.6564 C34.9199,2.6564 36.2339,3.1384 37.2389,4.0454 C38.3589,5.0554 39.0019,6.4904 39.0019,7.9814 C39.0019,10.6304 35.6829,12.4274 32.4929,12.5174 C33.9469,11.1894 34.7979,9.4624 34.7979,7.6334 C34.7979,5.5554 34.0779,3.9404 32.6269,2.7264 C32.6879,2.7174 32.7459,2.6974 32.8069,2.6914 C33.0349,2.6684 33.2619,2.6564 33.4839,2.6564 L33.4839,2.6564 Z M12.3129,7.7964 C13.2919,9.0824 14.1689,10.4284 14.9149,11.8364 C13.3239,10.8344 12.3469,9.3624 12.3129,7.7964 L12.3129,7.7964 Z M30.1899,11.7564 C30.9349,10.3504 31.8109,9.0044 32.7889,7.7184 C32.7549,9.2844 31.7779,10.7544 30.1899,11.7564 L30.1899,11.7564 Z M26.3429,21.1924 L26.2059,21.1924 L18.1509,21.1924 L18.0139,21.1924 L18.0139,14.6904 L26.3429,14.6904 L26.3429,21.1924 Z M19.1509,23.1924 L25.2059,23.1924 L25.2059,34.7654 L22.8079,32.9594 C22.4539,32.6924 21.9659,32.6914 21.6099,32.9554 L19.1509,34.7814 L19.1509,23.1924 Z M43.2129,12.6904 L38.3089,12.6904 C39.9119,11.5624 41.0019,9.9574 41.0019,7.9814 C41.0019,5.9254 40.1189,3.9494 38.5789,2.5604 C36.9899,1.1274 34.8589,0.4674 32.6019,0.7024 C27.6649,1.2104 23.7819,7.6744 22.5369,11.3254 C21.2659,7.6614 17.4039,1.2854 12.5019,0.7804 C10.2349,0.5464 8.1099,1.2064 6.5239,2.6394 C4.9839,4.0284 4.1009,6.0044 4.1009,8.0604 C4.1009,9.9924 5.1459,11.5674 6.6899,12.6904 L0.9999,12.6904 C0.4469,12.6904 -0.0001,13.1374 -0.0001,13.6904 L-0.0001,22.1924 C-0.0001,22.7444 0.4469,23.1924 0.9999,23.1924 L3.1009,23.1924 L3.1009,48.0004 C3.1009,48.5524 3.5479,49.0004 4.1009,49.0004 L40.3119,49.0004 C40.8639,49.0004 41.3119,48.5524 41.3119,48.0004 L41.3119,23.1924 L43.2129,23.1924 C43.7659,23.1924 44.2129,22.7444 44.2129,22.1924 L44.2129,13.6904 C44.2129,13.1374 43.7659,12.6904 43.2129,12.6904 L43.2129,12.6904 Z" id="Fill-14" fill="#9D9498" mask="url(#mask-2)"></path>
                    </g>
                </g>
            </g>
        </g>
    </g>
</svg>