<?xml version="1.0" encoding="UTF-8"?>
<svg width="97px" height="92px" viewBox="0 0 97 92" version="1.1" xmlns="http://www.w3.org/2000/svg" xmlns:xlink="http://www.w3.org/1999/xlink">
    <!-- Generator: Sketch 61.2 (89653) - https://sketch.com -->
    <title>Glasses</title>
    <desc>Created with Sketch.</desc>
    <defs>
        <polygon id="path-1" points="0 0.0440854433 47.9763374 0.0440854433 47.9763374 72.5852143 0 72.5852143"></polygon>
    </defs>
    <g id="Logo" stroke="none" stroke-width="1" fill="none" fill-rule="evenodd">
        <g id="Home" transform="translate(-412.000000, -3166.000000)">
            <g id="Glasses" transform="translate(412.000000, 3166.000000)">
                <g id="Group-25" transform="translate(1.000000, 10.000000)">
                    <path d="M44.6046322,19.772732 L22.4804119,11.421852 C21.6008356,11.088932 20.6111068,11.482532 20.2000898,12.325492 L11.9402932,29.353612 C8.00439492,37.466692 11.8926153,47.200092 20.3431237,50.389892 C28.7936322,53.579692 38.1664627,48.851572 40.6013271,40.172692 L45.7110898,21.957212 C45.9642763,21.053572 45.4842085,20.105652 44.6046322,19.772732" id="Fill-1" fill="#F2F2F1"></path>
                    <path d="M44.6046322,19.772732 L35.9058695,16.489452 L29.831039,38.147292 C28.0833949,44.374372 22.2897,48.292332 16.1770559,48.025012 C17.4002424,48.999172 18.7944119,49.806052 20.3431237,50.389892 C28.7936322,53.579692 38.1664627,48.851572 40.6013271,40.172692 L45.7110898,21.957212 C45.9642763,21.053572 45.4842085,20.105652 44.6046322,19.772732" id="Fill-3" fill="#E1E0DF"></path>
                    <path d="M43.6043814,29.4671 L10.8266017,32.45354 C9.0444322,39.79582 12.9474492,47.59894 20.3441102,50.39022 C28.7929746,53.58002 38.1658051,48.8519 40.6023136,40.17302 L43.6043814,29.4671 Z" id="Fill-5" fill="#FFE87F"></path>
                    <path d="M43.6043814,29.4671 L31.9676695,30.52654 L29.8303814,38.14762 C28.0843814,44.37142 22.2906864,48.29266 16.1780424,48.02534 C16.2027034,48.04502 16.2290085,48.06306 16.2520254,48.08438 C16.6482458,48.39598 17.0609068,48.6879 17.4916525,48.96178 C17.5426186,48.99458 17.5952288,49.02902 17.6461949,49.06182 C17.7530593,49.12742 17.8615678,49.19138 17.9684322,49.2537 C18.0539237,49.30454 18.1410593,49.35374 18.2265508,49.40294 C18.3235508,49.45706 18.4221949,49.50954 18.5191949,49.56202 C18.6244153,49.61778 18.7296356,49.6719 18.8365,49.72602 C18.9236356,49.77194 19.0140593,49.81622 19.1044831,49.85886 C19.2327203,49.91954 19.3609576,49.97858 19.4924831,50.03598 C19.564822,50.07042 19.6388051,50.10322 19.7127881,50.13602 C19.9199407,50.22458 20.1303814,50.30986 20.3441102,50.39022 C20.6827881,50.51814 21.0247542,50.6313 21.3683644,50.73298 C21.7612966,50.85106 22.1558729,50.95438 22.5504492,51.03966 C22.9137881,51.11838 23.2754831,51.18398 23.6355339,51.23482 C24.1205339,51.3037 24.6038898,51.34962 25.0856017,51.37094 C25.1086186,51.37258 25.1316356,51.37586 25.1546525,51.37586 C30.4748559,51.59726 35.5780424,49.02082 38.552161,44.6125 C38.7017712,44.39274 38.843161,44.16642 38.9812627,43.93682 C39.2574661,43.47762 39.5106525,43.00038 39.739178,42.50674 C40.0827881,41.7671 40.3721441,40.98646 40.6023136,40.17302 L43.6043814,29.4671 Z" id="Fill-7" fill="#FBDE5A"></path>
                    <path d="M50.4198644,19.772732 L72.5440847,11.421852 C73.423661,11.088932 74.4133898,11.482532 74.8244068,12.325492 L83.0842034,29.353612 C87.0217458,37.466692 83.1318814,47.200092 74.6813729,50.389892 C66.2308644,53.579692 56.8580339,48.851572 54.4248136,40.172692 L49.3134068,21.957212 C49.0602203,21.053572 49.5402881,20.105652 50.4198644,19.772732" id="Fill-9" fill="#F2F2F1"></path>
                    <path d="M83.0843678,29.354104 L74.8245712,12.325984 C74.4135542,11.483024 73.4238254,11.089424 72.5442492,11.420704 L64.0789441,14.617064 L72.5080797,31.991224 C75.8833508,38.946464 73.5043847,47.087424 67.4328424,51.280904 C69.8035881,51.562984 72.2795542,51.297304 74.6815373,50.390384 C83.1320458,47.200584 87.0219102,37.467184 83.0843678,29.354104" id="Fill-11" fill="#E1E0DF"></path>
                    <path d="M51.4201153,29.4671 L84.1978949,32.45354 C85.9800644,39.79582 82.0770475,47.59894 74.6803864,50.39022 C66.231522,53.58002 56.8586915,48.8519 54.4238271,40.17302 L51.4201153,29.4671 Z" id="Fill-13" fill="#FFE87F"></path>
                    <path d="M75.6508797,49.983828 C75.8103542,49.910028 75.9698288,49.836228 76.1276593,49.757508 C76.2180831,49.713228 76.3052186,49.665668 76.3939983,49.619748 C76.5353881,49.544308 76.678422,49.470508 76.8148797,49.391788 C76.9069475,49.340948 76.9957271,49.288468 77.0861508,49.235988 C77.2193203,49.157268 77.3524898,49.076908 77.4823712,48.993268 C77.5695068,48.939148 77.6566424,48.883388 77.7421339,48.825988 C77.8753034,48.740708 78.0035407,48.650508 78.1301339,48.560308 C78.2106932,48.504548 78.2896085,48.448788 78.3701678,48.391388 C78.5049814,48.291348 78.6397949,48.188028 78.7713203,48.081428 C78.8370831,48.032228 78.9044898,47.981388 78.9686085,47.930548 C79.1609644,47.773108 79.3483881,47.614028 79.5292356,47.450028 L79.5391,47.443468 C79.7248797,47.276188 79.9040831,47.103988 80.0799983,46.930148 C80.1375407,46.872748 80.1950831,46.812068 80.2509814,46.754668 C80.3677102,46.634948 80.4827949,46.515228 80.5962356,46.392228 C80.6603542,46.321708 80.7228288,46.249548 80.7853034,46.177388 C80.8872356,46.062588 80.9858797,45.947788 81.0828797,45.831348 C81.1469983,45.754268 81.2094729,45.675548 81.2719475,45.596828 C81.3656593,45.480388 81.454439,45.363948 81.5432186,45.245868 C81.6040492,45.165508 81.6632356,45.085148 81.722422,45.003148 C81.8095576,44.881788 81.8950492,44.757148 81.9805407,44.634148 C82.0331508,44.553788 82.0874051,44.475068 82.1383712,44.394708 C82.2287949,44.258588 82.3142864,44.119188 82.3981339,43.979788 C82.4408797,43.909268 82.4836254,43.840388 82.5263712,43.769868 C82.6431,43.568148 82.7548966,43.364788 82.8634051,43.159788 C82.8699814,43.148308 82.8782017,43.135188 82.8814898,43.123708 C82.9949305,42.910508 83.1001508,42.692388 83.2020831,42.472628 C83.2349644,42.398828 83.2678458,42.323388 83.3007271,42.247948 C83.3664898,42.100348 83.4306085,41.951108 83.4930831,41.801868 C83.5292525,41.711668 83.5621339,41.621468 83.5966593,41.531268 C83.6509136,41.393508 83.7018797,41.254108 83.7528458,41.113068 C83.7857271,41.017948 83.8169644,40.922828 83.8482017,40.827708 C83.8958797,40.689948 83.9386254,40.550548 83.9797271,40.411148 C84.0093203,40.314388 84.0372695,40.215988 84.0635746,40.119228 C84.1046763,39.976548 84.1392017,39.833868 84.1753712,39.691188 C84.1983881,39.596068 84.2230492,39.500948 84.2460661,39.407468 C84.2805915,39.251668 84.3118288,39.094228 84.341422,38.936788 C84.3578627,38.853148 84.3759475,38.769508 84.3907441,38.685868 C84.4302017,38.464468 84.4630831,38.241428 84.4943203,38.016748 C84.4959644,37.993788 84.5008966,37.972468 84.5041847,37.951148 C84.533778,37.711708 84.5567949,37.472268 84.5765237,37.232828 C84.5847441,37.147548 84.5880322,37.063908 84.5913203,36.980268 C84.6011847,36.817908 84.6110492,36.657188 84.6159814,36.493188 C84.6192695,36.396428 84.6192695,36.296388 84.6209136,36.197988 C84.6225576,36.048748 84.6225576,35.899508 84.6209136,35.750268 L84.6110492,35.440308 C84.6044729,35.294348 84.5962525,35.146748 84.5880322,35.000788 C84.5814559,34.895828 84.5732356,34.792508 84.5633712,34.687548 C84.5502186,34.539948 84.533778,34.390708 84.5173373,34.239828 C84.5058288,34.139788 84.4943203,34.039748 84.4795237,33.941348 C84.4565068,33.778988 84.4302017,33.618268 84.4022525,33.457548 C84.3874559,33.370628 84.3759475,33.282068 84.3578627,33.195148 C84.3151169,32.968828 84.2657949,32.744148 84.2131847,32.521108 C84.2082525,32.498148 84.2033203,32.475188 84.1983881,32.453868 L72.2016254,31.359988 L72.5090661,31.991388 C75.8843373,38.946628 73.5037271,47.087588 67.4338288,51.281068 C67.5127441,51.290908 67.5933034,51.297468 67.6705746,51.305668 C67.8251169,51.322068 67.9796593,51.335188 68.1342017,51.346668 C68.2279136,51.353228 68.3216254,51.359788 68.4169814,51.364708 C68.5896085,51.374548 68.7671678,51.381108 68.9430831,51.384388 C69.0219983,51.384388 69.1009136,51.387668 69.1765407,51.387668 C69.3771169,51.387668 69.5776932,51.384388 69.7782695,51.377828 C69.8506085,51.376188 69.9262356,51.371268 69.9985746,51.367988 C70.2057271,51.358148 70.4145237,51.345028 70.6233203,51.325348 C70.6825068,51.320428 70.7400492,51.313868 70.7975915,51.307308 C71.0014559,51.285988 71.2053203,51.261388 71.4108288,51.231868 C71.4469983,51.226948 71.4848119,51.223668 71.5209814,51.217108 C71.7462186,51.182668 71.9714559,51.143308 72.1950492,51.099028 C72.2443712,51.089188 72.2920492,51.079348 72.3397271,51.071148 C72.5649644,51.023588 72.7918458,50.971108 73.0170831,50.913708 C73.0664051,50.900588 73.112439,50.889108 73.1601169,50.875988 C73.3902864,50.815308 73.6204559,50.749708 73.8489814,50.677548 C73.8851508,50.667708 73.9196763,50.654588 73.9558458,50.643108 C74.1991678,50.564388 74.4408458,50.482388 74.6808797,50.390548 C74.932422,50.295428 75.1741,50.195388 75.415778,50.090428 C75.4946932,50.055988 75.5719644,50.018268 75.6508797,49.983828" id="Fill-15" fill="#FFDE46"></path>
                    <path d="M11.1677458,70.234056 L0.73120339,72.933496 C0.341559322,73.035176 0.311966102,73.573096 0.688457627,73.715776 L19.5919492,80.851416 C19.9684407,80.994096 20.3054746,80.570976 20.0785932,80.238056 L14.0497966,71.321376 L11.1677458,70.234056 Z" id="Fill-17" fill="#F2F2F1"></path>
                    <path d="M94.2926356,72.934316 L83.8560932,70.234876 L80.9740424,71.322196 L74.9452458,80.238876 C74.7216525,80.570156 75.0570424,80.994916 75.4318898,80.852236 L94.3353814,73.716596 C94.7118729,73.573916 94.6822797,73.034356 94.2926356,72.934316" id="Fill-19" fill="#F2F2F1"></path>
                    <path d="M12.9354475,3.438496 L11.4146847,3.438496 L11.4146847,1.921496 C11.4146847,1.160536 10.7981593,0.543896 10.0336678,0.543896 C9.27082034,0.543896 8.65429492,1.160536 8.65429492,1.921496 L8.65429492,3.438496 L7.1335322,3.438496 C6.37068475,3.438496 5.75087119,4.055136 5.75087119,4.816096 C5.75087119,5.578696 6.37068475,6.193696 7.1335322,6.193696 L8.65429492,6.193696 L8.65429492,7.710696 C8.65429492,8.471656 9.27082034,9.088296 10.0336678,9.088296 C10.7981593,9.088296 11.4146847,8.471656 11.4146847,7.710696 L11.4146847,6.193696 L12.9354475,6.193696 C13.699939,6.193696 14.3181085,5.578696 14.3181085,4.816096 C14.3181085,4.055136 13.6982949,3.438496 12.9354475,3.438496" id="Fill-21" fill="#9D9498"></path>
                    <path d="M87.8914576,3.438496 L86.372339,3.438496 L86.372339,1.921496 C86.372339,1.160536 85.7541695,0.543896 84.989678,0.543896 C84.2268305,0.543896 83.6103051,1.160536 83.6103051,1.921496 L83.6103051,3.438496 L82.0895424,3.438496 C81.3250508,3.438496 80.7068814,4.055136 80.7068814,4.816096 C80.7068814,5.578696 81.3250508,6.193696 82.0895424,6.193696 L83.6103051,6.193696 L83.6103051,7.710696 C83.6103051,8.471656 84.2268305,9.088296 84.989678,9.088296 C85.7541695,9.088296 86.372339,8.471656 86.372339,7.710696 L86.372339,6.193696 L87.8914576,6.193696 C88.6543051,6.193696 89.2741186,5.578696 89.2741186,4.816096 C89.2741186,4.055136 88.6543051,3.438496 87.8914576,3.438496" id="Fill-23" fill="#9D9498"></path>
                </g>
                <g id="Group-31">
                    <path d="M51.1725273,3.02318571 L49.6588909,3.02318571 L49.6588909,1.50354286 C49.6588909,0.741257143 49.0436182,0.123542857 48.2843455,0.123542857 C47.5250727,0.123542857 46.9114364,0.741257143 46.9114364,1.50354286 L46.9114364,3.02318571 L45.3978,3.02318571 C44.6385273,3.02318571 44.0216182,3.6409 44.0216182,4.40318571 C44.0216182,5.16711429 44.6385273,5.78482857 45.3978,5.78482857 L46.9114364,5.78482857 L46.9114364,7.30282857 C46.9114364,8.06511429 47.5250727,8.68282857 48.2843455,8.68282857 C49.0436182,8.68282857 49.6588909,8.06511429 49.6588909,7.30282857 L49.6588909,5.78482857 L51.1725273,5.78482857 C51.9318,5.78482857 52.5487091,5.16711429 52.5487091,4.40318571 C52.5487091,3.6409 51.9318,3.02318571 51.1725273,3.02318571" id="Fill-26" fill="#9D9498"></path>
                    <g id="Group-30" transform="translate(0.000000, 19.071429)">
                        <mask id="mask-2" fill="white">
                            <use xlink:href="#path-1"></use>
                        </mask>
                        <g id="Clip-29"></g>
                        <path d="M45.1287818,11.7567857 L43.2960545,18.3364286 L25.5235091,19.9661429 C24.7446,20.0384286 24.1702364,20.7284286 24.2422364,21.5104286 C24.3142364,22.2924286 25.0015091,22.8674286 25.7820545,22.7967857 L42.4778727,21.2672857 L40.0446,30.0056429 C38.9956909,33.7661429 36.4020545,36.9335714 32.9313273,38.6963571 C29.4606,40.4591429 25.3827818,40.6776429 21.7435091,39.2943571 C21.5291455,39.2122143 21.3164182,39.1251429 21.1069636,39.0331429 C21.0546,39.0101429 21.0038727,38.9855 20.9531455,38.9625 C20.7911455,38.8885714 20.6307818,38.813 20.4736909,38.7341429 C20.4229636,38.7095 20.3755091,38.6848571 20.3264182,38.6602143 C20.1611455,38.5747857 19.9975091,38.4860714 19.8355091,38.3940714 C19.8011455,38.376 19.7667818,38.3562857 19.7324182,38.3365714 C19.5426,38.2265 19.3527818,38.1115 19.1678727,37.9932143 C19.1646,37.9899286 19.1629636,37.9899286 19.1613273,37.9882857 C18.3595091,37.4707857 17.6133273,36.8727857 16.9358727,36.2057857 C16.9293273,36.1975714 16.9211455,36.191 16.9129636,36.1827857 C16.7493273,36.0217857 16.5922364,35.8575 16.4367818,35.6882857 C16.4318727,35.6817143 16.4269636,35.6784286 16.4204182,35.6702143 C16.1078727,35.3268571 15.8100545,34.9670714 15.5302364,34.5925 C15.5040545,34.5530714 15.4746,34.5152857 15.4451455,34.4758571 C15.3469636,34.3378571 15.2504182,34.2015 15.1555091,34.0618571 C15.1080545,33.9928571 15.0638727,33.9238571 15.0196909,33.8548571 C14.9460545,33.7398571 14.8724182,33.6232143 14.8004182,33.5065714 C14.7546,33.4277143 14.7055091,33.3505 14.6596909,33.27 C14.5893273,33.1500714 14.5222364,33.0285 14.4567818,32.9052857 C14.4158727,32.833 14.3766,32.7623571 14.3389636,32.6884286 C14.2391455,32.4995 14.1442364,32.3072857 14.0558727,32.1134286 C14.0313273,32.0592143 14.0067818,32.005 13.9838727,31.9507857 C13.9135091,31.7930714 13.8464182,31.637 13.7809636,31.476 C13.7596909,31.4217857 13.7367818,31.3642857 13.7155091,31.3067857 C13.6484182,31.1326429 13.5829636,30.9568571 13.5224182,30.7794286 C13.5109636,30.7498571 13.5011455,30.7186429 13.4896909,30.6874286 C12.7647818,28.5155714 12.5913273,26.2057143 12.9595091,23.9714286 L18.6475091,23.4506429 C19.4264182,23.3783571 20.0007818,22.6867143 19.9304182,21.9047143 C19.8584182,21.1243571 19.1678727,20.5477143 18.3906,20.62 L13.7727818,21.0422143 C13.8906,20.7481429 14.0149636,20.4557143 14.1524182,20.1682143 L22.3751455,3.11207143 C22.4438727,2.97078571 22.5829636,2.88864286 22.7286,2.88864286 C22.7760545,2.88864286 22.8218727,2.89685714 22.8676909,2.91492857 L44.8898727,11.2803571 C45.0813273,11.3542857 45.1844182,11.558 45.1287818,11.7567857 L45.1287818,11.7567857 Z M18.0371455,68.6834286 L5.14096364,63.7827857 L12.0300545,61.9904286 L14.0575091,62.7592857 L18.0371455,68.6834286 Z M45.8913273,8.62221429 L23.8724182,0.256785714 C22.2982364,-0.339571429 20.5604182,0.355357143 19.8273273,1.875 L11.6062364,18.9311429 C11.0924182,19.9973571 10.6964182,21.1062857 10.4198727,22.2415 C10.4116909,22.2677857 10.4002364,22.2924286 10.3936909,22.3187143 C9.74078182,25.0343571 9.79478182,27.7746429 10.4411455,30.3342143 C10.4460545,30.3555714 10.4509636,30.3785714 10.4558727,30.3999286 C10.4869636,30.5264286 10.5213273,30.6512857 10.5556909,30.7777857 C10.5998727,30.9387857 10.6489636,31.0997857 10.6996909,31.2607857 C10.7209636,31.3265 10.7406,31.3922143 10.7635091,31.4579286 C10.8715091,31.7963571 10.9926,32.1298571 11.1235091,32.4617143 C11.1431455,32.5159286 11.1693273,32.5685 11.1922364,32.6227143 C11.2396909,32.7393571 11.2904182,32.8576429 11.3427818,32.9742857 C11.4033273,33.1122857 11.4622364,33.2502857 11.5260545,33.3866429 C11.5636909,33.4687857 11.6078727,33.5509286 11.6471455,33.6330714 C11.9007818,34.1522143 12.1789636,34.6549286 12.4833273,35.1428571 C12.5438727,35.2397857 12.6044182,35.34 12.6682364,35.4369286 C12.7418727,35.5502857 12.8204182,35.662 12.8973273,35.7753571 C12.9791455,35.892 13.0593273,36.0086429 13.1427818,36.1252857 C13.2115091,36.2189286 13.2802364,36.3125714 13.3506,36.4045714 C13.4553273,36.5425714 13.5616909,36.6789286 13.6696909,36.812 C13.7269636,36.8826429 13.7842364,36.9516429 13.8398727,37.0206429 C13.9822364,37.1915 14.1295091,37.3590714 14.2767818,37.525 C14.3046,37.5562143 14.3340545,37.5890714 14.3618727,37.6202857 C15.1244182,38.4515714 15.9753273,39.2105714 16.9031455,39.8808571 C16.9178727,39.8923571 16.9326,39.9022143 16.9473273,39.9120714 C17.1567818,40.0632143 17.3695091,40.2077857 17.5871455,40.3490714 C17.6198727,40.3704286 17.6526,40.3917857 17.6869636,40.4115 C17.8849636,40.5396429 18.0878727,40.6612143 18.2924182,40.7811429 C18.3398727,40.8090714 18.3856909,40.837 18.4347818,40.8632857 C18.6262364,40.9733571 18.8226,41.0768571 19.0189636,41.1787143 C19.0762364,41.2099286 19.1335091,41.2395 19.1924182,41.2690714 C19.2398727,41.2920714 19.2873273,41.3134286 19.3347818,41.3364286 L12.6109636,59.1712857 C12.3376909,59.0677857 12.0382364,59.053 11.7551455,59.1252857 L1.36750909,61.8310714 C0.595145455,62.0315 0.0453272727,62.7034286 0.00278181818,63.5051429 C-0.0414,64.3052143 0.433145455,65.0346429 1.18096364,65.3188571 L19.9942364,72.4669286 C20.2069636,72.5474286 20.4262364,72.5852143 20.6438727,72.5852143 C21.1887818,72.5852143 21.7156909,72.3404286 22.0707818,71.8902857 C22.5666,71.2610714 22.5993273,70.392 22.1542364,69.7266429 L16.1504182,60.7960714 C15.9867818,60.5529286 15.7527818,60.3656429 15.4795091,60.2621429 L22.2000545,42.4305714 C23.6580545,42.8347143 25.1586,43.0367857 26.6558727,43.0367857 C29.2560545,43.0367857 31.8496909,42.4305714 34.2076909,41.2329286 C38.3869636,39.1103571 41.5075091,35.2989286 42.7691455,30.7712143 L47.8549636,12.5223571 C48.3066,10.8975714 47.4638727,9.22021429 45.8913273,8.62221429 L45.8913273,8.62221429 Z" id="Fill-28" fill="#9D9498" mask="url(#mask-2)"></path>
                    </g>
                </g>
                <path d="M78.953862,88.0736218 L82.9371045,82.1121398 L84.9639249,81.3384366 L91.8580614,83.1420908 L78.953862,88.0736218 Z M77.1562458,57.5933545 C76.9941657,57.6859344 76.8304484,57.7735546 76.6650939,57.8611748 C76.6143415,57.885973 76.5668635,57.9107712 76.5177483,57.9355694 C76.3589425,58.0149235 76.1984995,58.0909713 76.0380565,58.1637126 C75.9873041,58.1885108 75.9349146,58.213309 75.8825251,58.2364539 C75.6729669,58.3290338 75.4617715,58.416654 75.2456647,58.4993146 C71.6062286,59.8896658 67.5263929,59.6697886 64.0523113,57.8975455 C60.5798669,56.1236492 57.9849474,52.9362567 56.9371565,49.1520547 L54.5010427,40.3569675 L58.8461005,40.7570448 C59.6237578,40.8314393 60.3130077,40.2495088 60.3850433,39.4625799 C60.4554418,38.6773043 59.8824311,37.9813021 59.1031367,37.9085607 L53.6840933,37.4092908 L51.8488221,30.7881772 C51.7931582,30.5881386 51.8979373,30.3831403 52.0894866,30.3087458 L74.1209267,21.8905909 C74.3108388,21.8161964 74.5236713,21.9021634 74.6137158,22.0889763 L82.8388741,39.252622 C82.9780338,39.5435873 83.102459,39.8362058 83.2186983,40.1321307 L66.5735581,38.5979501 C65.7942636,38.5252088 65.1066509,39.1054861 65.0362524,39.8907618 C64.9642168,40.6793438 65.5388646,41.3736928 66.3165219,41.4464342 L84.0356477,43.0798075 C84.4023745,45.3281756 84.2304713,47.6525915 83.5035664,49.8381376 C83.4921062,49.8695486 83.4822832,49.9009597 83.4724601,49.9307175 C83.4118847,50.1092644 83.3463978,50.286158 83.2792737,50.4630517 C83.2563533,50.5192609 83.2334328,50.5754701 83.2121496,50.6333325 C83.1482998,50.7936941 83.0795386,50.9524024 83.0091401,51.1094575 C82.9845825,51.1640135 82.9616621,51.2185695 82.9387417,51.2714723 C82.84706,51.4682045 82.7537411,51.6616303 82.6555107,51.8517497 C82.6162185,51.924491 82.5752892,51.9972323 82.535997,52.0699736 C82.4688729,52.1939645 82.403386,52.3179554 82.3329876,52.4369867 C82.2871467,52.5179941 82.2396687,52.595695 82.1921907,52.6750492 C82.1217922,52.7924272 82.0481194,52.9098053 81.9744466,53.0238769 C81.9269686,53.094965 81.8827649,53.1627467 81.8369241,53.2338348 C81.741968,53.3743578 81.6453748,53.5115744 81.5471444,53.648791 C81.5176753,53.6884681 81.4914805,53.7297984 81.4603742,53.7694755 C81.1804176,54.1447545 80.8857264,54.5068079 80.5713892,54.8539824 C80.5664777,54.8605953 80.5582918,54.8655549 80.5550174,54.8705146 C80.4011232,55.0407954 80.2423174,55.2077698 80.0786,55.3681313 C80.0720513,55.3763974 80.0638655,55.3846635 80.0556796,55.3912763 C79.3778899,56.0624803 78.6329761,56.6642494 77.829124,57.1850112 C77.829124,57.1850112 77.8258497,57.1883176 77.8225753,57.1899708 C77.6359376,57.3090021 77.4476627,57.4230737 77.2561134,57.5354921 C77.2233699,57.5553306 77.1889893,57.573516 77.1562458,57.5933545 L77.1562458,57.5933545 Z M96.9971481,82.8610448 C96.9545816,82.0559306 96.4044914,81.3797669 95.6333828,81.1764219 L85.23897,78.4552351 C84.9557391,78.3808406 84.6561364,78.3973727 84.3810913,78.5015251 L77.6572208,60.554257 C77.7030617,60.531112 77.7521769,60.5096203 77.7980177,60.4864753 C77.856956,60.4567175 77.914257,60.4253064 77.9731953,60.3955486 C78.1696561,60.2930495 78.3661168,60.1872439 78.5576661,60.078132 C78.6051441,60.0500274 78.650985,60.0219228 78.7001002,59.9954714 C78.9047468,59.8747869 79.1061191,59.7524492 79.3058543,59.6251519 C79.3369606,59.6036601 79.3729784,59.5821684 79.4040847,59.5590234 C79.6218287,59.4185004 79.8346612,59.2713646 80.0442194,59.1225755 C80.0605911,59.111003 80.0753257,59.0994305 80.0900602,59.087858 C81.0183375,58.4150008 81.8680304,57.6528701 82.6309531,56.8146917 C82.6620594,56.7816275 82.6882542,56.7485632 82.7193604,56.715499 C82.8683432,56.5501778 83.0124145,56.3848566 83.1515742,56.2145758 C83.2121496,56.1434877 83.2678135,56.0707464 83.3267517,55.9996583 C83.4315308,55.8657481 83.5379471,55.7301847 83.641089,55.5946214 C83.7114874,55.4987351 83.7818859,55.404502 83.8522843,55.3086157 C83.9357802,55.1928909 84.0160016,55.077166 84.094586,54.9614412 C84.1731703,54.8457164 84.2517546,54.7316448 84.3270646,54.6142667 C84.38764,54.5200336 84.4465782,54.4241474 84.5071536,54.3282611 C84.813305,53.8322975 85.096536,53.3198018 85.3535722,52.790774 C85.3928643,52.7114199 85.4305193,52.6353721 85.4681743,52.5560179 C85.5336612,52.4171481 85.5942366,52.2749719 85.654812,52.1327957 C85.7055644,52.0170709 85.7546796,51.9046525 85.8037948,51.7872744 C85.8250781,51.7327184 85.8512728,51.6781624 85.8725561,51.6236064 C86.0035299,51.2896576 86.1230436,50.949096 86.2327342,50.6085344 C86.2540174,50.5457123 86.2753007,50.481237 86.2949468,50.4167618 C86.3473363,50.254747 86.3948143,50.0894258 86.439018,49.9241046 C86.4750358,49.801767 86.5061421,49.6761229 86.5388856,49.5504788 C86.5454343,49.5273338 86.551983,49.5008824 86.5585317,49.4777374 C87.2019407,46.9020333 87.2543303,44.1461291 86.6010982,41.4166763 C86.5945495,41.390225 86.5830893,41.3654268 86.5749034,41.3389754 C86.2982211,40.196606 85.9036624,39.0790348 85.38959,38.0061002 L77.1627945,20.8424546 C76.4309781,19.3132336 74.6906629,18.613925 73.1189767,19.2140409 L51.0875366,27.6321957 C49.5142131,28.2356181 48.6694317,29.9218942 49.1212915,31.5569207 L51.2201476,39.1286311 L54.2112631,49.9207982 C54.4863082,50.917685 54.8497606,51.8798543 55.2967089,52.7973869 C56.8880413,56.075706 59.5075185,58.7820138 62.773679,60.4484514 C63.1846095,60.6584093 63.605363,60.8501819 64.0293909,61.0237691 C66.0398396,61.8470687 68.1828994,62.2636781 70.3292335,62.2636781 C71.827247,62.2636781 73.3285348,62.060333 74.7888933,61.6536429 L81.5127638,79.5976045 C81.2393559,79.7034101 81.0052401,79.890223 80.8398856,80.1348984 L74.8347342,89.1234113 C74.3877859,89.7929622 74.4205294,90.6675112 74.9165929,91.2990382 C75.2718594,91.7520182 75.8006664,92 76.3458451,92 C76.5635891,92 76.7829703,91.9619761 76.9958029,91.8793155 L95.8200206,84.6861907 C96.5682088,84.400185 97.0413518,83.666159 96.9971481,82.8610448 L96.9971481,82.8610448 Z" id="Fill-32" fill="#9D9498"></path>
            </g>
        </g>
    </g>
</svg>