<?xml version="1.0" encoding="UTF-8"?>
<svg width="54px" height="38px" viewBox="0 0 54 38" version="1.1" xmlns="http://www.w3.org/2000/svg" xmlns:xlink="http://www.w3.org/1999/xlink">
    <!-- Generator: Sketch 61.2 (89653) - https://sketch.com -->
    <title>Hanger</title>
    <desc>Created with Sketch.</desc>
    <defs>
        <polygon id="path-1" points="0 0.298 53.8369306 0.298 53.8369306 38 0 38"></polygon>
    </defs>
    <g id="Logo" stroke="none" stroke-width="1" fill="none" fill-rule="evenodd">
        <g id="FAQ" transform="translate(-882.000000, -676.000000)">
            <g id="Hanger" transform="translate(882.000000, 675.000000)">
                <path d="M22.0562,26.0156 L31.1432,26.0876 L40.8812,33.8456 L13.0132,33.8456 L22.0562,26.0156 Z M33.0112,21.4086 L20.0292,21.6926 L1.2572,36.9886 L52.8342,36.9886 L33.0112,21.4086 Z" id="Fill-1" fill="#FFE87F"></path>
                <polygon id="Fill-2" fill="#DFC239" points="1.257 37.7561 52.834 37.7561 52.834 35.5351 1.257 35.5351"></polygon>
                <g id="Group-8" transform="translate(0.000000, 0.702100)">
                    <g id="Group-5">
                        <mask id="mask-2" fill="white">
                            <use xlink:href="#path-1"></use>
                        </mask>
                        <g id="Clip-4"></g>
                        <path d="M51.7144,36 L2.1234,36 C2.0894,36 2.0374,36 2.0104,35.919 C1.9824,35.838 2.0254,35.805 2.0494,35.786 L18.3074,23.084 C19.6784,22.013 21.3904,21.424 23.1294,21.424 L29.6664,21.424 C31.3464,21.424 32.9494,21.95 34.3044,22.944 L51.7834,35.787 C51.8124,35.807 51.8534,35.837 51.8264,35.919 C51.8004,36 51.7484,36 51.7144,36 M52.9684,34.175 L35.4874,21.332 C33.7874,20.083 31.7754,19.424 29.6664,19.424 L27.7134,19.424 L27.7134,15.595 C31.4794,15.102 34.3984,11.88 34.3984,7.982 C34.3984,3.745 30.9504,0.298 26.7134,0.298 C22.4764,0.298 19.0284,3.745 19.0284,7.982 C19.0284,8.535 19.4764,8.982 20.0284,8.982 C20.5814,8.982 21.0284,8.535 21.0284,7.982 C21.0284,4.848 23.5784,2.298 26.7134,2.298 C29.8484,2.298 32.3984,4.848 32.3984,7.982 C32.3984,11.117 29.8484,13.667 26.7134,13.667 C26.1604,13.667 25.7134,14.115 25.7134,14.667 L25.7134,19.424 L23.1294,19.424 C20.9464,19.424 18.7964,20.164 17.0764,21.508 L0.8184,34.209 C0.0944,34.775 -0.1806,35.702 0.1194,36.571 C0.4184,37.439 1.2054,38 2.1234,38 L51.7144,38 C52.6464,38 53.4364,37.428 53.7274,36.542 C54.0174,35.656 53.7204,34.728 52.9684,34.175" id="Fill-3" fill="#9D9498" mask="url(#mask-2)"></path>
                    </g>
                    <path d="M32.857,25.2686 C31.993,24.6436 30.949,24.3046 29.863,24.3136 L23.339,24.3736 C22.253,24.3836 21.18,24.7536 20.319,25.4166 L12.168,31.6926 C11.708,32.0536 11.527,32.6666 11.717,33.2196 C11.908,33.7716 12.429,34.1436 13.013,34.1436 L30.771,34.1436 C31.324,34.1436 31.771,33.6956 31.771,33.1436 C31.771,32.5906 31.324,32.1436 30.771,32.1436 L14.862,32.1436 L21.54,27.0016 C22.058,26.6026 22.704,26.3796 23.357,26.3736 L29.88,26.3136 C30.552,26.3186 31.164,26.5126 31.683,26.8886 L38.94,32.1436 L35.851,32.1436 C35.298,32.1436 34.851,32.5906 34.851,33.1436 C34.851,33.6956 35.298,34.1436 35.851,34.1436 L40.881,34.1436 C41.475,34.1436 41.999,33.7646 42.184,33.1996 C42.369,32.6356 42.172,32.0196 41.688,31.6636 L32.857,25.2686 Z" id="Fill-6" fill="#9D9498"></path>
                </g>
            </g>
        </g>
    </g>
</svg>