<?xml version="1.0" encoding="UTF-8"?>
<svg width="66px" height="38px" viewBox="0 0 66 38" version="1.1" xmlns="http://www.w3.org/2000/svg" xmlns:xlink="http://www.w3.org/1999/xlink">
    <!-- Generator: Sketch 61.2 (89653) - https://sketch.com -->
    <title>Hat</title>
    <desc>Created with Sketch.</desc>
    <defs>
        <polygon id="path-1" points="0.0003 0.474 65.646 0.474 65.646 38 0.0003 38"></polygon>
    </defs>
    <g id="Logo" stroke="none" stroke-width="1" fill="none" fill-rule="evenodd">
        <g id="FAQ" transform="translate(-390.000000, -878.000000)">
            <g id="Hat" transform="translate(390.000000, 877.000000)">
                <path d="M63.9912,30.2456 C63.9912,26.1536 50.0372,22.8366 32.8232,22.8366 C15.6092,22.8366 1.6552,26.1536 1.6552,30.2456 C1.6552,34.3376 15.6092,37.6556 32.8232,37.6556 C50.0372,37.6556 63.9912,34.3376 63.9912,30.2456" id="Fill-1" fill="#BCA798"></path>
                <path d="M63.5215,27.981 C64.9935,28.688 66.1105,31.928 62.5565,33.442 C59.9355,34.559 59.6295,34.928 55.8755,35.522 C47.0345,36.918 56.3195,32.308 55.8755,29.506 C55.4335,26.704 41.1375,23.274 50.0535,24.071 C58.6645,24.84 58.6645,25.646 63.5215,27.981" id="Fill-3" fill="#A99180"></path>
                <path d="M13.6887,27.7501 C12.3227,27.1161 13.6647,20.3831 15.1027,20.8351 C21.4667,22.8361 44.247,23.163 51,20 C52.364,19.361 52.9827,26.7011 51.6777,27.4541 C44.3307,31.6971 21.1947,31.2361 13.6887,27.7501 Z" id="Fill-5" fill="#FFE87F"></path>
                <polygon id="Fill-7" fill="#BCA798" points="50.5742 19.9864 32.8232 22.8364 14.5132 19.8654 19.5992 4.2874 25.1852 2.5054 32.8232 5.4144 41.3242 2.5054 46.9142 5.0964"></polygon>
                <path d="M50.5742,19.9864 L45.1562,21.3104 C45.7582,18.7924 42.5122,5.8144 38.2692,3.4384 L41.5392,2.0154 L46.9142,5.0964 L50.5742,19.9864 Z" id="Fill-9" fill="#A99180"></path>
                <g id="Group-13" transform="translate(0.000000, 0.526400)">
                    <mask id="mask-2" fill="white">
                        <use xlink:href="#path-1"></use>
                    </mask>
                    <g id="Clip-12"></g>
                    <path d="M14.1123,26.3022 C14.3083,24.7232 14.6183,22.7092 15.0453,20.5252 C20.9093,22.1902 26.9033,23.0312 32.8833,23.0312 C38.8803,23.0312 44.8583,22.1842 50.6653,20.5102 C51.0913,22.6992 51.3983,24.7192 51.5913,26.3042 C39.3923,29.5492 26.4703,29.5472 14.1123,26.3022 M24.0753,2.4822 C24.9783,2.3712 26.6573,3.2832 28.1283,4.0862 C29.8263,5.0122 31.4293,5.8882 32.8163,5.8882 L32.8263,5.8882 C34.2053,5.8842 35.7973,5.0102 37.4813,4.0842 C38.9173,3.2962 40.5433,2.4092 41.4483,2.4842 L41.4483,2.4852 C45.7783,2.8802 48.6523,11.2052 50.2583,18.5462 C38.9333,21.8442 26.9303,21.8492 15.4513,18.5622 C17.0503,11.2622 19.8803,2.9752 24.0753,2.4822 M53.0583,22.5932 C52.6753,20.2872 52.0953,17.3182 51.2673,14.2942 C48.8623,5.5002 45.6193,0.8572 41.6303,0.4922 C40.1233,0.3612 38.3693,1.3152 36.5183,2.3312 C35.1923,3.0602 33.6893,3.8852 32.8203,3.8882 L32.8163,3.8882 C31.9393,3.8882 30.4243,3.0612 29.0863,2.3302 C27.1863,1.2942 25.4053,0.3132 23.8413,0.4952 C17.0263,1.2972 13.8493,15.1672 12.6323,22.5822 C6.8333,23.6972 0.0003,25.7852 0.0003,29.4422 C0.0003,31.8372 2.9023,33.8382 8.6273,35.3882 C8.7153,35.4112 8.8023,35.4232 8.8893,35.4232 C9.3303,35.4232 9.7333,35.1302 9.8533,34.6842 C9.9983,34.1512 9.6833,33.6022 9.1503,33.4572 C3.8733,32.0282 2.0003,30.4012 2.0003,29.4422 C2.0003,28.4342 4.2133,26.3372 12.3093,24.6882 C12.1583,25.7662 12.0653,26.5632 12.0243,26.9352 C11.9713,27.4232 12.2803,27.8782 12.7543,28.0082 C19.3713,29.8272 26.1533,30.7372 32.9153,30.7372 C39.6763,30.7362 46.4193,29.8262 52.9503,28.0072 C53.4213,27.8762 53.7273,27.4242 53.6753,26.9382 C53.6663,26.8472 53.5753,26.0102 53.3863,24.6982 C61.4363,26.3412 63.6463,28.4272 63.6463,29.4422 C63.6463,32.1802 51.9203,36.0002 32.8233,36.0002 C27.0153,36.0002 21.3433,35.6232 16.4203,34.9092 C15.8713,34.8282 15.3653,35.2082 15.2873,35.7552 C15.2073,36.3022 15.5863,36.8092 16.1333,36.8882 C21.1503,37.6152 26.9213,38.0002 32.8233,38.0002 C49.1343,38.0002 65.6463,35.0602 65.6463,29.4422 C65.6463,25.8092 58.9283,23.7232 53.0583,22.5932" id="Fill-11" fill="#9D9498" mask="url(#mask-2)"></path>
                </g>
            </g>
        </g>
    </g>
</svg>