<?xml version="1.0" encoding="UTF-8"?>
<svg width="81px" height="68px" viewBox="0 0 81 68" version="1.1" xmlns="http://www.w3.org/2000/svg" xmlns:xlink="http://www.w3.org/1999/xlink">
    <!-- Generator: Sketch 61.2 (89653) - https://sketch.com -->
    <title>Group 11</title>
    <desc>Created with Sketch.</desc>
    <g id="Logo" stroke="none" stroke-width="1" fill="none" fill-rule="evenodd">
        <g id="Home" transform="translate(-1162.000000, -3191.000000)">
            <g id="Group-11" transform="translate(1164.000000, 3193.000000)">
                <path d="M38.4838003,6.91372348 C37.4195109,9.38103077 35.9028986,1.70757102 32.4971727,2.54565094 C5.42098645,9.2335287 29.5138366,63.9299766 37.9915665,62.9879748 C40.3230253,62.7264938 50.5202477,56.5615779 55.6421402,53.0483469 C58.6820166,50.9632041 62.86933,45.8576212 65.8460143,43.5445206 C71.9157895,38.8244545 76,29.9810352 76,19.8436205 C76,16.7293155 76.0033258,13.6016012 74.8991256,10.9432117 C71.7794274,3.41390174 61.9746618,-0.608881875 53.1244307,0.0749913396 C47.5169562,0.510792898 40.2365518,2.85741667 38.4838003,6.91372348" id="Fill-1" fill="#FEC3DA"></path>
                <path d="M37.5140243,7.91372348 C38.5783463,10.3810308 40.0950051,2.70757102 43.5008355,3.54565094 C70.5811781,10.2335287 46.4842631,64.9299766 38.0095992,63.9879748 C35.6747428,63.7264938 25.4805338,57.5615779 20.3584842,54.0483469 C17.3151885,51.9632041 13.1277467,46.8576212 10.1542971,44.5445206 C4.08433576,39.8244545 0,30.9810352 0,20.8469728 C0,17.7293155 -0.00332588625,14.6016012 1.09758217,11.9432117 C4.22070201,4.41390174 14.0224423,0.391118125 22.8729449,1.07499134 C28.4839174,1.5107929 35.761219,3.85741667 37.5140243,7.91372348" id="Fill-3" fill="#FDD8E7"></path>
                <path d="M77,22 C77.056718,8.15056951 67.7091235,0.300163399 55.4624005,0.00585872383 C44.382032,-0.257646625 38.4932821,8.45514063 38.4932821,8.45514063 L38.51004,8.45514063 C38.51004,8.45514063 32.6212901,-0.257646625 21.53757,0.00585872383 C9.29419862,0.300163399 -0.0533959326,8.15056951 0,22" id="Stroke-5" stroke="#9D9498" stroke-width="3" stroke-linecap="round" stroke-linejoin="round"></path>
                <path d="M38,64 C40.2409163,64 66.2058023,50.9261229 74,34" id="Stroke-7" stroke="#9D9498" stroke-width="3" stroke-linecap="round" stroke-linejoin="round"></path>
                <path d="M38,64 C35.7643312,64 9.77594605,50.9261229 2,34" id="Stroke-9" stroke="#9D9498" stroke-width="3" stroke-linecap="round" stroke-linejoin="round"></path>
            </g>
        </g>
    </g>
</svg>