<?xml version="1.0" encoding="UTF-8"?>
<svg width="42px" height="49px" viewBox="0 0 42 49" version="1.1" xmlns="http://www.w3.org/2000/svg" xmlns:xlink="http://www.w3.org/1999/xlink">
    <!-- Generator: Sketch 61.2 (89653) - https://sketch.com -->
    <title>Hotel</title>
    <desc>Created with Sketch.</desc>
    <defs>
        <polygon id="path-1" points="0 0.1845 41.988 0.1845 41.988 49 0 49"></polygon>
    </defs>
    <g id="Logo" stroke="none" stroke-width="1" fill="none" fill-rule="evenodd">
        <g id="FAQ" transform="translate(-1018.000000, -1525.000000)">
            <g id="Hotel" transform="translate(1018.000000, 1524.000000)">
                <polygon id="Fill-1" fill="#CDD9BE" points="1.99 48.8159 39.584 48.8159 39.584 7.2539 1.99 7.2539"></polygon>
                <polygon id="Fill-2" fill="#AEC394" points="1.99 48.8159 4.172 48.8159 4.172 7.0589 1.99 7.0589"></polygon>
                <polygon id="Fill-3" fill="#F8B1CD" points="1 7.2539 40.988 7.2539 40.988 1.9999 1 1.9999"></polygon>
                <polygon id="Fill-4" fill="#FFFFFF" points="8.32 32.5839 17.32 32.5839 17.32 24.5839 8.32 24.5839"></polygon>
                <polygon id="Fill-4" fill="#FFFFFF" points="25 33 34 33 34 25 25 25"></polygon>
                <polygon id="Fill-4" fill="#FFFFFF" points="25 20 34 20 34 12 25 12"></polygon>
                <polygon id="Fill-4" fill="#FFFFFF" points="8 20 17 20 17 12 8 12"></polygon>
                <polygon id="Fill-4" fill="#BCA798" points="15.32 48.8159 26.552 48.8159 26.552 37.5839 15.32 37.5839"></polygon>
                <g id="Group-11" transform="translate(0.000000, 0.815900)">
                    <mask id="mask-2" fill="white">
                        <use xlink:href="#path-1"></use>
                    </mask>
                    <g id="Clip-6"></g>
                    <path d="M25.236,18.448 L32.84,18.448 L32.84,12.045 L25.236,12.045 L25.236,18.448 Z M34.84,11.045 C34.84,10.493 34.393,10.045 33.84,10.045 L24.236,10.045 C23.684,10.045 23.236,10.493 23.236,11.045 L23.236,19.448 C23.236,20 23.684,20.448 24.236,20.448 L33.84,20.448 C34.393,20.448 34.84,20 34.84,19.448 L34.84,11.045 Z" id="Fill-5" fill="#9D9498" mask="url(#mask-2)"></path>
                    <path d="M9.202,18.448 L16.806,18.448 L16.806,12.045 L9.202,12.045 L9.202,18.448 Z M18.806,11.045 C18.806,10.493 18.358,10.045 17.806,10.045 L8.202,10.045 C7.649,10.045 7.202,10.493 7.202,11.045 L7.202,19.448 C7.202,20 7.649,20.448 8.202,20.448 L17.806,20.448 C18.358,20.448 18.806,20 18.806,19.448 L18.806,11.045 Z" id="Fill-7" fill="#9D9498" mask="url(#mask-2)"></path>
                    <path d="M2,5.4385 L2,2.1845 L39.988,2.1845 L39.988,5.4385 L39.584,5.4385 L2,5.4385 Z M16.319,46.9995 L25.551,46.9995 L25.551,37.7675 L16.319,37.7675 L16.319,46.9995 Z M40.988,0.1845 L1,0.1845 C0.447,0.1845 0,0.6315 0,1.1845 L0,6.4385 C0,6.9875 0.442,7.4315 0.99,7.4365 L0.99,48.0005 C0.99,48.5525 1.438,49.0005 1.99,49.0005 L15.319,49.0005 L26.552,49.0005 L39.584,49.0005 C40.137,49.0005 40.584,48.5525 40.584,48.0005 L40.584,41.9985 C40.584,41.4455 40.137,40.9985 39.584,40.9985 C39.031,40.9985 38.584,41.4455 38.584,41.9985 L38.584,47.0005 L27.552,47.0005 L27.552,36.7675 C27.552,36.2155 27.104,35.7675 26.552,35.7675 L15.319,35.7675 C14.767,35.7675 14.319,36.2155 14.319,36.7675 L14.319,47.0005 L2.99,47.0005 L2.99,7.4385 L38.584,7.4385 L38.584,36.0305 C38.584,36.5835 39.031,37.0305 39.584,37.0305 C40.137,37.0305 40.584,36.5835 40.584,36.0305 L40.584,7.4385 L40.988,7.4385 C41.541,7.4385 41.988,6.9905 41.988,6.4385 L41.988,1.1845 C41.988,0.6315 41.541,0.1845 40.988,0.1845 L40.988,0.1845 Z" id="Fill-8" fill="#9D9498" mask="url(#mask-2)"></path>
                    <path d="M9.202,31.052 L16.806,31.052 L16.806,24.649 L9.202,24.649 L9.202,31.052 Z M17.806,22.649 L8.202,22.649 C7.649,22.649 7.202,23.097 7.202,23.649 L7.202,32.052 C7.202,32.604 7.649,33.052 8.202,33.052 L17.806,33.052 C18.358,33.052 18.806,32.604 18.806,32.052 L18.806,23.649 C18.806,23.097 18.358,22.649 17.806,22.649 L17.806,22.649 Z" id="Fill-9" fill="#9D9498" mask="url(#mask-2)"></path>
                    <path d="M25.236,31.052 L32.84,31.052 L32.84,24.649 L25.236,24.649 L25.236,31.052 Z M33.84,22.649 L24.236,22.649 C23.684,22.649 23.236,23.097 23.236,23.649 L23.236,32.052 C23.236,32.604 23.684,33.052 24.236,33.052 L33.84,33.052 C34.393,33.052 34.84,32.604 34.84,32.052 L34.84,23.649 C34.84,23.097 34.393,22.649 33.84,22.649 L33.84,22.649 Z" id="Fill-10" fill="#9D9498" mask="url(#mask-2)"></path>
                </g>
            </g>
        </g>
    </g>
</svg>