<?xml version="1.0" encoding="UTF-8"?>
<svg width="41px" height="41px" viewBox="0 0 41 41" version="1.1" xmlns="http://www.w3.org/2000/svg" xmlns:xlink="http://www.w3.org/1999/xlink">
    <!-- Generator: Sketch 61.2 (89653) - https://sketch.com -->
    <title>Map</title>
    <desc>Created with Sketch.</desc>
    <defs>
        <polygon id="path-1" points="0 40.6021 40.319 40.6021 40.319 0.0001 0 0.0001"></polygon>
    </defs>
    <g id="Logo" stroke="none" stroke-width="1" fill="none" fill-rule="evenodd">
        <g id="FAQ" transform="translate(-977.000000, -1101.000000)">
            <g id="Map" transform="translate(977.000000, 1101.000000)">
                <polygon id="Fill-3" fill="#CDD9BE" points="29.9748 23.2056 10.0258 23.2056 0.9998 39.6016 39.3188 39.6016"></polygon>
                <path d="M20.0129,18.3399 C17.7309,18.3399 15.8799,16.4899 15.8799,14.2069 C15.8799,11.9249 17.7309,10.0749 20.0129,10.0749 C22.2949,10.0749 24.1459,11.9249 24.1459,14.2069 C24.1459,16.4899 22.2949,18.3399 20.0129,18.3399 M20.0129,0.7459 C12.9249,0.7459 7.1799,6.4909 7.1799,13.5789 C7.1799,13.9199 6.8229,14.5579 6.8449,14.9249 C6.9359,16.4339 7.6109,17.8629 8.4009,19.6269 C11.4189,26.3619 18.1779,33.8739 20.0129,33.8739 C22.8219,33.8739 32.8459,20.6669 32.8459,13.5789 C32.8459,6.4909 27.1009,0.7459 20.0129,0.7459" id="Fill-1" fill="#FF8585"></path>
                <path d="M19.6916,34.5289 C19.4236,34.5289 19.1566,34.4329 18.9426,34.2399 C18.4886,33.8269 18.4556,33.1239 18.8686,32.6689 C26.6696,24.0819 31.3266,16.5069 31.3266,12.4059 C31.3266,11.7919 31.8236,11.2939 32.4386,11.2939 C33.0526,11.2939 33.5496,11.7919 33.5496,12.4059 C33.5496,18.8519 25.3826,28.8049 20.5146,34.1649 C20.2956,34.4059 19.9936,34.5289 19.6916,34.5289" id="Fill-5" fill="#D95D5D"></path>
                <mask id="mask-2" fill="white">
                    <use xlink:href="#path-1"></use>
                </mask>
                <g id="Clip-8"></g>
                <polygon id="Fill-7" fill="#A2BD80" mask="url(#mask-2)" points="1.617 39.6021 38.272 39.6021 38.272 37.1041 1.617 37.1041"></polygon>
                <path d="M16.4338,14.2071 C16.4338,12.2341 18.0388,10.6281 20.0128,10.6281 C21.9868,10.6281 23.5918,12.2341 23.5918,14.2071 C23.5918,16.1811 21.9868,17.7861 20.0128,17.7861 C18.0388,17.7861 16.4338,16.1811 16.4338,14.2071 M25.5918,14.2071 C25.5918,11.1311 23.0888,8.6281 20.0128,8.6281 C16.9368,8.6281 14.4338,11.1311 14.4338,14.2071 C14.4338,17.2831 16.9368,19.7861 20.0128,19.7861 C23.0888,19.7861 25.5918,17.2831 25.5918,14.2071" id="Fill-9" fill="#9D9498" mask="url(#mask-2)"></path>
                <path d="M2.6926,38.6021 L10.3096,24.7641 C12.7636,28.3571 15.6746,31.7331 17.5276,33.7711 C18.1626,34.4721 19.0686,34.8731 20.0116,34.8731 L20.0126,34.8731 C20.9566,34.8731 21.8626,34.4721 22.4986,33.7721 C24.6016,31.4561 27.3856,28.1851 29.7146,24.7691 L37.5976,38.6021 L2.6926,38.6021 Z M40.1876,39.1071 L30.9436,22.8851 C32.8496,19.7951 34.2196,16.7071 34.2196,14.2071 C34.2196,6.3731 27.8466,0.0001 20.0126,0.0001 C12.1786,0.0001 5.8046,6.3731 5.8046,14.2071 C5.8046,14.4751 5.8206,14.7501 5.8506,15.0321 C5.9096,15.5811 6.3846,15.9811 6.9526,15.9191 C7.5016,15.8601 7.8986,15.3671 7.8386,14.8181 C7.8166,14.6091 7.8046,14.4061 7.8046,14.2071 C7.8046,7.4761 13.2816,2.0001 20.0126,2.0001 C26.7446,2.0001 32.2196,7.4761 32.2196,14.2071 C32.2196,17.8941 28.0326,24.7051 21.0176,32.4271 C20.7556,32.7151 20.3996,32.8731 20.0126,32.8731 L20.0116,32.8731 C19.6266,32.8731 19.2686,32.7151 19.0076,32.4271 C16.4246,29.5841 11.7286,24.0831 9.2966,19.1821 C9.0496,18.6871 8.4516,18.4851 7.9566,18.7301 C7.4616,18.9761 7.2586,19.5761 7.5046,20.0711 C7.9616,20.9911 8.4936,21.9281 9.0726,22.8641 L0.1246,39.1201 C-0.0464,39.4301 -0.0404,39.8071 0.1386,40.1111 C0.3196,40.4151 0.6466,40.6021 1.0006,40.6021 L39.3186,40.6021 C39.6746,40.6021 40.0046,40.4131 40.1826,40.1041 C40.3626,39.7961 40.3636,39.4161 40.1876,39.1071 L40.1876,39.1071 Z" id="Fill-10" fill="#9D9498" mask="url(#mask-2)"></path>
            </g>
        </g>
    </g>
</svg>