<?xml version="1.0" encoding="UTF-8"?>
<svg width="66px" height="57px" viewBox="0 0 66 57" version="1.1" xmlns="http://www.w3.org/2000/svg" xmlns:xlink="http://www.w3.org/1999/xlink">
    <!-- Generator: Sketch 61.2 (89653) - https://sketch.com -->
    <title>Plane</title>
    <desc>Created with Sketch.</desc>
    <defs>
        <polygon id="path-1" points="7.54433573e-05 0.542019198 65.664 0.542019198 65.664 56.9999 7.54433573e-05 56.9999"></polygon>
    </defs>
    <g id="Logo" stroke="none" stroke-width="1" fill="none" fill-rule="evenodd">
        <g id="FAQ" transform="translate(-383.000000, -473.000000)">
            <g id="Plane" transform="translate(383.000000, 472.000000)">
                <polygon id="Fill-1" fill="#FFFFFF" points="12.4839 27.8775 7.9979 33.9905 15.4979 37.3955 61.6639 22.1715 65.1169 16.4325 58.2089 13.3945"></polygon>
                <polygon id="Fill-2" fill="#FFE87F" points="9.1497 31.722 2.6567 24.161 12.4837 27.878"></polygon>
                <polygon id="Fill-3" fill="#CDD9BE" points="61.9329 23.0183 14.6549 37.8953 10.1549 36.4843 64.4189 19.2953"></polygon>
                <polygon id="Fill-4" fill="#FFE87F" points="10.6204 36.3655 9.6644 46.2865 15.5594 37.5895"></polygon>
                <polygon id="Fill-5" fill="#FFFFFF" points="42.9866 18.2161 24.8236 23.9691 15.6226 1.9551"></polygon>
                <polygon id="Fill-6" fill="#FFFFFF" points="27.7641 33.2532 32.9161 56.5502 45.9281 27.5002"></polygon>
                <polygon id="Fill-7" fill="#CDD9BE" points="30.6468 32.3406 27.7638 33.2536 32.2318 55.7696 34.5978 55.0196"></polygon>
                <polygon id="Fill-8" fill="#CDD9BE" points="27.7054 23.0564 24.8234 23.9694 15.6224 1.9544 18.5594 3.6794"></polygon>
                <g id="Group-11" transform="translate(0.000000, 0.457800)">
                    <mask id="mask-2" fill="white">
                        <use xlink:href="#path-1"></use>
                    </mask>
                    <g id="Clip-10"></g>
                    <path d="M63.5735,17.1689 C62.6045,19.2309 62.0525,20.0459 61.0065,20.9609 C60.4195,21.4739 59.7025,21.8669 58.8765,22.1279 L58.6955,22.1859 C58.9675,19.4399 58.0635,16.6709 56.2155,14.6169 L56.3635,14.5699 C57.0675,14.3469 57.7495,14.2349 58.4005,14.2349 C58.6845,14.2349 58.9645,14.2559 59.2365,14.2989 C60.4965,14.4979 61.6445,14.9719 63.1995,15.9379 C63.6205,16.1979 63.7805,16.7279 63.5735,17.1689 L63.5735,17.1689 Z M17.4815,35.2399 C16.2125,35.6419 14.8235,35.6149 13.5715,35.1609 L9.2465,33.5969 C9.0555,33.5279 8.9905,33.3769 8.9695,33.2929 C8.9465,33.2089 8.9295,33.0439 9.0625,32.8919 L9.9055,31.9189 L11.9415,29.5719 C12.6745,28.7309 13.6225,28.1079 14.6855,27.7709 L26.1345,24.1449 L43.2885,18.7109 L43.2895,18.7109 L54.0445,15.3039 C56.1945,17.1699 57.1565,20.0929 56.5505,22.8649 L35.2515,29.6119 L27.5305,32.0569 L27.5295,32.0579 L17.4815,35.2399 Z M10.3735,42.7099 L11.3635,36.9439 L13.8655,37.5639 L10.3735,42.7099 Z M4.9695,25.6509 L10.7885,27.8489 L10.4275,28.2649 C10.4265,28.2669 10.4235,28.2689 10.4215,28.2709 L9.0985,29.7959 L4.9695,25.6509 Z M40.5995,17.4649 L25.3735,22.2879 L16.6875,2.7709 L40.5995,17.4649 Z M64.2545,14.2379 C62.4785,13.1359 61.0705,12.5639 59.5485,12.3239 C58.3445,12.1339 57.0715,12.2479 55.7605,12.6639 L43.1205,16.6669 L17.3305,0.8179 C16.6335,0.3909 15.7535,0.4649 15.1385,1.0029 C14.5245,1.5429 14.3355,2.4059 14.6675,3.1509 L23.4545,22.8959 L14.0825,25.8649 C13.6135,26.0129 13.1695,26.2179 12.7385,26.4469 L1.3535,22.1479 C0.9125,21.9829 0.4165,22.1459 0.1605,22.5409 C-0.0955,22.9359 -0.0405,23.4559 0.2925,23.7889 L7.7855,31.3109 L7.5515,31.5819 C7.0235,32.1899 6.8305,33.0179 7.0335,33.7969 C7.2365,34.5759 7.8095,35.2039 8.5665,35.4779 L9.5265,35.8249 L7.6205,46.9259 C7.5405,47.3909 7.7955,47.8469 8.2315,48.0229 C8.3535,48.0719 8.4805,48.0959 8.6055,48.0959 C8.9285,48.0959 9.2425,47.9379 9.4325,47.6569 L16.3255,37.4999 C16.3325,37.4899 16.3355,37.4789 16.3415,37.4689 C16.9315,37.4189 17.5175,37.3259 18.0855,37.1469 L27.0675,34.3009 L28.9385,43.7909 C29.0465,44.3329 29.5725,44.6859 30.1135,44.5779 C30.6555,44.4709 31.0085,43.9449 30.9015,43.4039 L28.9865,33.6939 L44.2125,28.8709 L33.1215,54.6519 L31.8915,48.4199 C31.7845,47.8769 31.2585,47.5239 30.7175,47.6319 C30.1755,47.7389 29.8225,48.2649 29.9285,48.8069 L31.2505,55.5049 C31.4085,56.3069 32.0605,56.9029 32.8735,56.9889 C32.9395,56.9969 33.0065,56.9999 33.0725,56.9999 C33.8075,56.9999 34.4745,56.5669 34.7705,55.8779 L46.7335,28.0719 L59.4795,24.0349 C60.5705,23.6899 61.5275,23.1619 62.3225,22.4659 C63.7325,21.2329 64.4065,20.0989 65.3845,18.0199 C66.0225,16.6589 65.5365,15.0329 64.2545,14.2379 L64.2545,14.2379 Z" id="Fill-9" fill="#9D9498" mask="url(#mask-2)"></path>
                </g>
            </g>
        </g>
    </g>
</svg>