<?xml version="1.0" encoding="UTF-8"?>
<svg width="31px" height="49px" viewBox="0 0 31 49" version="1.1" xmlns="http://www.w3.org/2000/svg" xmlns:xlink="http://www.w3.org/1999/xlink">
    <!-- Generator: Sketch 61.2 (89653) - https://sketch.com -->
    <title>Question mark</title>
    <desc>Created with Sketch.</desc>
    <defs>
        <polygon id="path-1" points="0 0.171 30.388 0.171 30.388 33.5657 0 33.5657"></polygon>
    </defs>
    <g id="Logo" stroke="none" stroke-width="1" fill="none" fill-rule="evenodd">
        <g id="FAQ" transform="translate(-1045.000000, -1961.000000)">
            <g id="Question-mark" transform="translate(1045.000000, 1960.000000)">
                <path d="M19.083,44.0059 C19.083,41.3419 16.924,39.1829 14.26,39.1829 C11.596,39.1829 9.437,41.3419 9.437,44.0059 C9.437,46.6699 11.596,48.8289 14.26,48.8289 C16.924,48.8289 19.083,46.6699 19.083,44.0059" id="Fill-1" fill="#FDD8E7"></path>
                <path d="M18.7295,44.0059 C18.7295,46.4139 16.5455,48.3659 15.3725,48.3659 C14.1985,48.3659 16.5635,46.4139 16.5635,44.0059 C16.5635,41.5979 14.1985,39.6459 15.3725,39.6459 C16.5455,39.6459 18.7295,41.5979 18.7295,44.0059" id="Fill-3" fill="#F8B1CD"></path>
                <path d="M0.999972794,13.8389 C0.99,9.2399 3.733,1.9999 15.382,1.9999 C22.648,1.9999 29.389,7.1489 29.388,13.6089 C29.387,17.8839 28.923,20.5329 22.416,24.7809 C18.634,27.2509 18.605,29.7349 18.451,33.3949 L10.333,33.3949 C10.163,26.2959 13.483,23.6769 17.398,20.9429 C25.437,15.3279 21.557,7.3879 14.393,7.5729 C11.03,7.6599 7.144,10.3879 7.139,13.8389 L0.999972794,13.8389 Z" id="Fill-5" fill="#FDD8E7"></path>
                <path d="M23.1406,24.3037 C22.2566,21.8467 25.6426,20.7667 26.2226,14.9797 C26.8036,9.1927 23.0766,7.3647 25.2476,4.8187 C25.2476,4.8187 29.9676,8.8357 29.3876,14.6227 C28.8066,20.4097 23.4976,25.2987 23.1406,24.3037" id="Fill-7" fill="#F8B1CD"></path>
                <path d="M14.2598,38.1826 C13.1558,38.1826 12.0808,38.4936 11.1528,39.0806 C10.6858,39.3756 10.5458,39.9936 10.8418,40.4596 C11.1358,40.9266 11.7568,41.0676 12.2208,40.7706 C12.8288,40.3856 13.5338,40.1826 14.2598,40.1826 C16.3678,40.1826 18.0828,41.8976 18.0828,44.0056 C18.0828,46.1146 16.3678,47.8286 14.2598,47.8286 C12.1518,47.8286 10.4368,46.1146 10.4368,44.0056 C10.4368,43.4536 9.9888,43.0056 9.4368,43.0056 C8.8838,43.0056 8.4368,43.4536 8.4368,44.0056 C8.4368,47.2166 11.0488,49.8286 14.2598,49.8286 C17.4708,49.8286 20.0828,47.2166 20.0828,44.0056 C20.0828,40.7946 17.4708,38.1826 14.2598,38.1826" id="Fill-9" fill="#9D9498"></path>
                <g id="Group-13" transform="translate(0.000000, 0.829100)">
                    <mask id="mask-2" fill="white">
                        <use xlink:href="#path-1"></use>
                    </mask>
                    <g id="Clip-12"></g>
                    <path d="M23.709,2.3887 C23.228,2.1137 22.618,2.2787 22.344,2.7577 C22.068,3.2377 22.234,3.8477 22.713,4.1227 C26.267,6.1627 28.388,9.3997 28.388,12.7797 C28.387,16.7757 28.097,19.0497 21.869,23.1157 C18.018,25.6297 17.648,28.2847 17.493,31.5657 L11.332,31.5657 C11.467,25.9117 14.079,23.6517 17.971,20.9327 C21.975,18.1367 23.681,14.3907 22.537,10.9117 C21.487,7.7217 18.214,5.6517 14.367,5.7437 C10.813,5.8357 6.872,8.4677 6.23,12.0097 L2.047,12.0097 C2.197,10.3837 2.792,7.7897 4.909,5.6677 C7.225,3.3477 10.748,2.1707 15.382,2.1707 C16.523,2.1707 17.674,2.3067 18.799,2.5757 C19.338,2.7047 19.876,2.3727 20.004,1.8347 C20.132,1.2977 19.801,0.7587 19.264,0.6307 C17.985,0.3257 16.68,0.1707 15.382,0.1707 C10.198,0.1707 6.198,1.5457 3.493,4.2557 C0.33,7.4257 -0.003,11.4357 -1.9872727e-05,13.0117 C0.001,13.5637 0.448,14.0097 1,14.0097 L7.139,14.0097 C7.69,14.0097 8.138,13.5627 8.139,13.0107 C8.143,10.1837 11.577,7.8177 14.419,7.7437 C17.333,7.6617 19.865,9.1917 20.637,11.5367 C21.49,14.1307 20.065,17.0307 16.826,19.2927 C12.473,22.3337 9.157,25.2427 9.333,32.5897 C9.347,33.1317 9.79,33.5657 10.333,33.5657 L18.451,33.5657 C18.987,33.5657 19.428,33.1427 19.45,32.6077 L19.46,32.3877 C19.606,28.8677 19.688,26.9277 22.963,24.7887 C29.887,20.2697 30.387,17.2367 30.388,12.7797 C30.388,8.6737 27.891,4.7897 23.709,2.3887" id="Fill-11" fill="#9D9498" mask="url(#mask-2)"></path>
                </g>
            </g>
        </g>
    </g>
</svg>