<?xml version="1.0" encoding="UTF-8"?>
<svg width="99px" height="99px" viewBox="0 0 99 99" version="1.1" xmlns="http://www.w3.org/2000/svg" xmlns:xlink="http://www.w3.org/1999/xlink">
    <!-- Generator: Sketch 61.2 (89653) - https://sketch.com -->
    <title>Rings</title>
    <desc>Created with Sketch.</desc>
    <g id="Logo" stroke="none" stroke-width="1" fill="none" fill-rule="evenodd">
        <g id="Home" transform="translate(-177.000000, -3160.000000)">
            <g id="Rings" transform="translate(177.000000, 3160.000000)">
                <g id="Group-9" transform="translate(1.000000, 14.000000)" fill="#FFE87F">
                    <path d="M38.6548695,57.274728 C24.9928695,60.606168 11.2201237,52.219608 7.89271695,38.541048 C4.56531017,24.864168 12.9417169,11.073048 26.602039,7.741608 C40.264039,4.410168 54.0367847,12.796728 57.3658695,26.473608 C60.6932763,40.153848 52.3168695,53.943288 38.6548695,57.274728 M25.0348186,1.295448 C7.81720847,5.495448 -2.73887627,22.873368 1.45436102,40.111848 C5.64927627,57.350328 23.0061576,67.919208 40.2237678,63.719208 C57.4397,59.520888 67.9974627,42.142968 63.8042254,24.902808 C59.6093102,7.666008 42.2524288,-2.904552 25.0348186,1.295448" id="Fill-1"></path>
                    <path d="M63.8038898,24.903648 C59.8103305,8.490048 43.8830763,-1.875552 27.5061271,0.793968 C34.6441949,1.963248 41.1798729,5.531568 46.0291949,10.835328 C51.5127881,14.233968 55.7194492,19.705728 57.3655339,26.474448 C60.0435678,37.481808 55.1422288,48.558048 46.0073814,54.201168 C41.8577712,58.748928 36.3590763,62.152608 29.9324661,63.720048 C29.1085847,63.921648 28.2847034,64.087968 27.4625,64.222368 C31.5852627,64.897728 35.9077034,64.773408 40.2234322,63.720048 C57.4410424,59.520048 67.9971271,42.142128 63.8038898,24.903648" id="Fill-3"></path>
                    <path d="M70.4174254,76.616064 C56.7554254,79.947504 42.9826797,71.560944 39.6535949,57.882384 C36.3261881,44.205504 44.7025949,30.414384 58.3645949,27.082944 C72.0265949,23.751504 85.7993407,32.138064 89.1267475,45.816624 C92.4541542,59.493504 84.0794254,73.284624 70.4174254,76.616064 M56.7956966,20.636784 C39.5797644,24.836784 29.0220017,42.214704 33.2169169,59.453184 C37.4101542,76.691664 54.7670356,87.260544 71.9863237,83.060544 C89.2022559,78.862224 99.7600186,61.484304 95.5651034,44.244144 C91.3701881,27.007344 74.0133068,16.436784 56.7956966,20.636784" id="Fill-5"></path>
                    <path d="M95.5656068,44.244984 C91.5720475,27.831384 75.6431153,17.465784 59.2661661,20.135304 C66.4059119,21.304584 72.9432678,24.872904 77.7909119,30.178344 C83.2745051,33.575304 87.4794881,39.047064 89.1272508,45.815784 C91.8052847,56.823144 86.9022678,67.899384 77.7690983,73.544184 C73.6178102,78.090264 68.1224712,81.495624 61.6941831,83.061384 C60.8719797,83.262984 60.0480983,83.429304 59.2242169,83.563704 C63.3469797,84.239064 67.6710983,84.114744 71.9851492,83.061384 C89.2027593,78.863064 99.760522,61.483464 95.5656068,44.244984" id="Fill-7"></path>
                </g>
                <g id="Group-18" transform="translate(20.000000, 2.000000)">
                    <path d="M37.9726667,38.914448 C38.0393333,39.189968 38.0993333,39.463808 38.156,39.737648 C38.4243333,39.662048 38.6943333,39.589808 38.966,39.522608 C40.8776667,39.053888 42.7943333,38.817008 44.681,38.793488 C44.5876667,38.311328 44.4843333,37.827488 44.3676667,37.343648 C43.9393333,35.569568 43.3693333,33.867728 42.6776667,32.243168 C40.9276667,32.370848 39.1676667,32.644688 37.4076667,33.076448 C36.9276667,33.194048 36.4543333,33.323408 35.9843333,33.461168 C36.8343333,35.163008 37.506,36.985808 37.9726667,38.914448" id="Fill-10" fill="#FFE87F"></path>
                    <polygon id="Fill-12" fill="#FFFFFF" points="13.4023333 19.166216 0.852333333 7.407896 5.64566667 0.212456 21.159 0.212456 25.9523333 7.407896"></polygon>
                    <polygon id="Fill-14" fill="#FFFFFF" points="13.4023333 19.166216 13.4023333 0.212456 21.159 0.212456 25.9523333 7.407896"></polygon>
                    <polygon id="Fill-16" fill="#FFFFFF" points="25.9455 7.397312 21.1588333 0.211952 5.6455 0.211952 0.8605 7.397312"></polygon>
                </g>
                <g id="Group-23">
                    <polygon id="Fill-19" fill="#FFFFFF" points="33.6287898 1.86916667 33.6287898 8.9975 46.2571627 8.9975 43.1311119 4.37416667 41.4380441 1.86916667"></polygon>
                    <path d="M72.6383136,94.9868333 C70.2119746,95.5735 67.7839576,95.8551667 65.3928559,95.8551667 C53.2074661,95.8535 41.9869068,88.5635 37.1912797,77.2885 C37.1375847,77.1651667 37.0855678,77.0418333 37.0352288,76.9185 C37.0150932,76.8668333 36.9949576,76.8168333 36.974822,76.7668333 C36.9127373,76.6118333 36.8506525,76.4568333 36.7902458,76.3001667 C36.7818559,76.2768333 36.7717881,76.2535 36.7650763,76.2301667 C36.6962797,76.0518333 36.629161,75.8701667 36.5637203,75.6901667 C36.5603644,75.6835 36.5603644,75.6785 36.5586864,75.6718333 C36.4882119,75.4768333 36.4194153,75.2801667 36.3522966,75.0851667 C36.3522966,75.0835 36.3506186,75.0818333 36.3506186,75.0818333 C36.285178,74.8818333 36.2197373,74.6801667 36.1576525,74.4801667 C36.1526186,74.4651667 36.1475847,74.4518333 36.1442288,74.4368333 C36.0855,74.2501667 36.0284492,74.0618333 35.9730763,73.8751667 C35.9562966,73.8135 35.9395169,73.7518333 35.9227373,73.6901667 C35.8807881,73.5468333 35.8421949,73.4051667 35.8036017,73.2618333 C35.7482288,73.0551667 35.6928559,72.8451667 35.6425169,72.6351667 C35.588822,72.4235 35.540161,72.2101667 35.493178,71.9968333 C35.4763983,71.9151667 35.4579407,71.8285 35.4394831,71.7451667 C35.4193475,71.6468333 35.3992119,71.5501667 35.3790763,71.4535 C35.3656525,71.3885 35.3522288,71.3268333 35.3404831,71.2618333 C35.3388051,71.2535 35.3354492,71.2451667 35.3337712,71.2368333 C33.9158898,64.0151667 35.1626186,56.5968333 38.8944153,50.1968333 C42.6463475,43.7635 48.5410424,38.9818333 55.5817881,36.6268333 C56.0767881,37.7435 56.4862119,38.9018333 56.8050254,40.0885 C50.6485678,42.1351667 45.488822,46.2868333 42.173161,51.8935 C38.760178,57.6618333 37.6594322,64.3801667 39.0353644,70.9035 L39.0353644,70.9051667 C39.0353644,70.9085 39.0353644,70.9101667 39.0370424,70.9135 C39.0605339,71.0285 39.0857034,71.1435 39.1108729,71.2601667 C39.1511441,71.4401667 39.1897373,71.6068333 39.2300085,71.7685 C39.2870593,72.0035 39.3491441,72.2401667 39.4129068,72.4735 C39.4296864,72.5301667 39.4464661,72.5885 39.4632458,72.6451667 C39.5135847,72.8268333 39.5656017,73.0085 39.6209746,73.1885 C39.6360763,73.2435 39.6545339,73.2968333 39.6713136,73.3501667 C39.7300424,73.5401667 39.7904492,73.7301667 39.8525339,73.9185 C39.8659576,73.9551667 39.8793814,73.9935 39.8928051,74.0301667 C39.9649576,74.2485 40.0421441,74.4651667 40.1210085,74.6785 C40.1243644,74.6868333 40.1260424,74.6935 40.1293983,74.7018333 C42.2201441,80.3568333 46.1398729,85.1118333 51.3986186,88.2885 C55.6707203,90.8685 60.4680254,92.1951667 65.3425169,92.1935 C67.4802458,92.1935 69.6330763,91.9385 71.7640932,91.4235 C86.1912458,87.9335 95.0676864,73.4351667 91.5523475,59.1068333 C90.0958729,53.1635 86.7567203,48.0451667 81.8990085,44.3051667 C77.4272288,40.8635 71.925178,38.8935 66.3107034,38.7018333 C66.2838559,38.5885 66.2570085,38.4751667 66.230161,38.3601667 C65.9532966,37.2351667 65.6160254,36.1168333 65.2217034,35.0196332 C71.6986525,34.9818333 78.0833136,37.0101667 83.3772966,40.8235 C89.2451441,45.0501667 93.4216017,51.2351667 95.139839,58.2385 C99.1367542,74.5335 89.0421102,91.0168333 72.6383136,94.9868333 L72.6383136,94.9868333 Z M32.1557034,70.0385 C27.4255169,69.7501667 22.8144661,68.0435 19.0172288,65.1535 C14.6360593,61.8151667 11.6291441,57.2301667 10.3186525,51.8918333 C7.1875678,39.1235 15.0975,26.2051667 27.9507203,23.0951667 C33.3269237,21.7935 38.8105169,22.3385 43.8075,24.6685 C48.1383305,26.6868333 51.7795169,29.9701667 54.2176017,34.0118333 C46.6885678,36.6418333 40.391161,41.8151667 36.3539746,48.7351667 C32.5651271,55.2318333 31.1153644,62.6868333 32.1557034,70.0385 L32.1557034,70.0385 Z M24.7156017,10.4551667 L42.5423136,10.4551667 L33.6289576,18.6835 L24.7156017,10.4551667 Z M26.6016356,3.32516667 L40.6562797,3.32516667 L43.5037881,7.54016667 L23.7558051,7.54016667 L26.6016356,3.32516667 Z M41.6261441,68.7168333 C40.8760932,63.4135 41.9382458,58.0418333 44.7035339,53.3685 C47.5946695,48.4801667 52.0597373,44.8335 57.3923136,42.9701667 C58.9645678,54.1385 52.3332458,64.9651667 41.6261441,68.7168333 L41.6261441,68.7168333 Z M62.2953305,63.5685 C66.3392288,56.9651667 67.9332966,49.2468333 66.8610763,41.6501667 C71.6348898,41.9451667 76.2878898,43.6751667 80.1002288,46.6101667 C84.4293814,49.9401667 87.4027373,54.5001667 88.7014831,59.7968333 C91.8325678,72.5651667 83.9243136,85.4801667 71.0694153,88.5918333 C64.8424831,90.0985 58.3990932,89.1068333 52.9238898,85.7985 C49.5343983,83.7518333 46.7691102,80.9668333 44.7924661,77.6785 C52.0815508,75.1301667 58.2514322,70.1735 62.2953305,63.5685 L62.2953305,63.5685 Z M97.9907034,57.5485 C96.1080254,49.8735 91.5305339,43.0951667 85.1005678,38.4635 C78.9793475,34.0568333 71.525822,31.8235 64.0269915,32.1335 C60.5687034,24.7651667 54.5515169,18.9418333 46.977178,15.6735 C46.233839,15.3535 45.3696864,15.6901667 45.0475169,16.4285 C44.7236695,17.1668333 45.0642966,18.0268333 45.8076356,18.3468333 C53.0111441,21.4551667 58.6742797,27.0935 61.7550254,34.2201667 C62.4295678,35.7818333 62.9749068,37.4068333 63.3776186,39.0501667 C63.4850085,39.4885 63.5840085,39.9385 63.6796525,40.4251667 L63.6796525,40.4268333 C65.1495508,47.8735 63.7669068,55.5551667 59.7884492,62.0535 C56.0264492,68.1968333 50.2525678,72.7785 43.4366695,75.0601667 C43.3125,74.7818333 43.1967203,74.5018333 43.0842966,74.2201667 C43.0826186,74.2151667 43.0809407,74.2135 43.0809407,74.2101667 C42.8644831,73.6668333 42.669839,73.1118333 42.4936525,72.5518333 C42.4785508,72.5068333 42.4651271,72.4618333 42.4517034,72.4168333 C42.3694831,72.1535 42.2922966,71.8868333 42.2201441,71.6185 L42.2151102,71.5985 C55.0347712,67.3251667 62.7869746,54.0668333 59.9864492,40.7835 L59.9864492,40.7818333 C59.9176525,40.4551667 59.8555678,40.1801667 59.7901271,39.9185 C59.3035169,37.9351667 58.5920593,36.0085 57.6742119,34.2001667 C57.6725339,34.1951667 57.6708559,34.1918333 57.669178,34.1885 C57.6624661,34.1768333 57.6574322,34.1651667 57.6507203,34.1518333 C54.9559068,28.8668333 50.4841271,24.5618333 45.0542288,22.0301667 C42.4500254,20.8168333 39.6729915,20.0351667 36.8389068,19.6985 L47.2624322,10.0751667 C47.7909915,9.58683333 47.8849576,8.79016667 47.4822458,8.19516667 L47.4755339,8.18516667 C47.4738559,8.18516667 47.4738559,8.1835 47.4738559,8.1835 L42.6564153,1.05683333 C42.3829068,0.6535 41.928178,0.411833333 41.4382119,0.411833333 L25.8197034,0.411833333 C25.3314153,0.411833333 24.8750085,0.6535 24.6015,1.05683333 L19.7756695,8.19516667 C19.3729576,8.79016667 19.4669237,9.58683333 19.9954831,10.0751667 L30.4173305,19.6985 C29.3568559,19.8235 28.2997373,20.0118333 27.2560424,20.2635 C12.8305678,23.7551667 3.95244915,38.2518333 7.46778814,52.5801667 C8.91587288,58.4885 12.3842288,63.7735 17.2318729,67.4668333 C21.6868729,70.8585 27.1402627,72.7968333 32.7094322,72.9851667 C32.7362797,73.1001667 32.7631271,73.2135 32.7899746,73.3268333 C32.8554153,73.5935 32.9258898,73.8568333 32.9963644,74.1201667 C33.0131441,74.1818333 33.0316017,74.2435 33.0483814,74.3051667 C33.1054322,74.5151667 33.1675169,74.7251667 33.2296017,74.9335 C33.2447034,74.9901667 33.263161,75.0485 33.2816186,75.1051667 C33.3487373,75.3285 33.4192119,75.5501667 33.4913644,75.7718333 C33.5047881,75.8101667 33.5165339,75.8485 33.5282797,75.8868333 C33.6155339,76.1485 33.7044661,76.4085 33.7984322,76.6668333 C27.3432966,76.6985 20.9854831,74.6901667 15.7015678,70.9035 C9.80183898,66.6785 5.6035678,60.4785 3.87861864,53.4485 C2.15870339,46.4318333 3.0094322,39.0201667 6.2764322,32.5801667 C9.50651695,26.2118333 14.8927881,21.1568333 21.4452458,18.3435 C22.1885847,18.0235 22.5308898,17.1651667 22.2087203,16.4268333 C21.8865508,15.6885 21.0240763,15.3468333 20.2807373,15.6668333 C13.0990424,18.7501667 7.19427966,24.2918333 3.65544915,31.2701667 C0.0746694915,38.3285 -0.856601695,46.4485 1.0294322,54.1385 C2.91882203,61.8418333 7.51812712,68.6351667 13.9833305,73.2685 C19.7219746,77.3801667 26.6150593,79.5818333 33.6222458,79.5818333 C34.0786525,79.5818333 34.5350593,79.5701667 34.9897881,79.5501667 C40.5002288,91.2668333 52.4490254,98.7701667 65.391178,98.7701667 C68.012161,98.7701667 70.6767712,98.4601667 73.3329915,97.8185 C91.3090424,93.4685 102.370195,75.4035 97.9907034,57.5485 L97.9907034,57.5485 Z" id="Fill-21" fill="#9D9498"></path>
                </g>
            </g>
        </g>
    </g>
</svg>