<?xml version="1.0" encoding="UTF-8"?>
<svg width="122px" height="80px" viewBox="0 0 122 80" version="1.1" xmlns="http://www.w3.org/2000/svg" xmlns:xlink="http://www.w3.org/1999/xlink">
    <!-- Generator: Sketch 61.2 (89653) - https://sketch.com -->
    <title>Truck</title>
    <desc>Created with Sketch.</desc>
    <defs>
        <polygon id="path-1" points="0.000554545455 0.736744186 121.543424 0.736744186 121.543424 67.9023256 0.000554545455 67.9023256"></polygon>
        <polygon id="path-3" points="-0.00203333333 0.736744186 3.69493636 0.736744186 3.69493636 67.9015814 -0.00203333333 67.9015814"></polygon>
        <polygon id="path-5" points="0 80 121.543424 80 121.543424 0.736744186 0 0.736744186"></polygon>
    </defs>
    <g id="Logo" stroke="none" stroke-width="1" fill="none" fill-rule="evenodd">
        <g id="Home" transform="translate(-660.000000, -3183.000000)">
            <g id="Truck" transform="translate(660.000000, 3183.000000)">
                <polygon id="Fill-1" fill="#CDD9BE" points="119 66 2.5 66 2.5 3.5 96.7076415 3.33274321 106.609848 32.4561388 119 38.4083385"></polygon>
                <polygon id="Fill-1" fill="#C2CFB1" points="119.5 65.6672568 107 65.5 107.109848 32.1233956 119.5 38.0755953"></polygon>
                <g id="Group-33">
                    <g id="Group-4">
                        <mask id="mask-2" fill="white">
                            <use xlink:href="#path-1"></use>
                        </mask>
                        <g id="Clip-3"></g>
                        <path d="M6.44437273,4.45674419 C4.93046364,4.45674419 3.69752424,5.69767442 3.69752424,7.22139535 L3.69752424,61.4148837 C3.69752424,62.9404651 4.93046364,64.1813953 6.44437273,64.1813953 L115.098312,64.1813953 C116.61407,64.1813953 117.847009,62.9404651 117.847009,61.4148837 L117.847009,39.5916279 L105.371585,34.1776744 C104.876191,33.9618605 104.500948,33.5432558 104.338282,33.027907 L95.8481909,5.91348837 C95.5764636,5.04093023 94.7834636,4.45674419 93.8758576,4.45674419 L6.44437273,4.45674419 Z M115.098312,67.9023256 L6.44437273,67.9023256 C2.89158485,67.9023256 0.000554545455,64.9925581 0.000554545455,61.4148837 L0.000554545455,7.22139535 C0.000554545455,3.6455814 2.89158485,0.735813953 6.44437273,0.735813953 L93.8758576,0.735813953 C96.4045848,0.735813953 98.6135242,2.3655814 99.3751,4.79348837 L107.6101,31.0967442 L120.425645,36.6595349 C121.104039,36.9534884 121.543979,37.6251163 121.543979,38.3674419 L121.543979,61.4148837 C121.543979,64.9925581 118.652948,67.9023256 115.098312,67.9023256 L115.098312,67.9023256 Z" id="Fill-2" fill="#9D9498" mask="url(#mask-2)"></path>
                    </g>
                    <path d="M36.8197848,66.0411163 C36.8197848,59.8457674 31.8307242,54.8243721 25.6771182,54.8243721 C19.5216636,54.8243721 14.532603,59.8457674 14.532603,66.0411163 C14.532603,72.2346047 19.5216636,77.256 25.6771182,77.256 C31.8307242,77.256 36.8197848,72.2346047 36.8197848,66.0411163" id="Fill-5" fill="#FFFFFF"></path>
                    <path d="M25.6765636,55.8022326 C20.0664121,55.8022326 15.502503,60.3957209 15.502503,66.0403721 C15.502503,71.6868837 20.0664121,76.2785116 25.6765636,76.2785116 C31.2848667,76.2785116 35.8487758,71.6868837 35.8487758,66.0403721 C35.8487758,60.3957209 31.2848667,55.8022326 25.6765636,55.8022326 M25.6765636,79.9994419 C18.0275333,79.9994419 11.8055333,73.7389767 11.8055333,66.0403721 C11.8055333,58.3436279 18.0275333,52.0813023 25.6765636,52.0813023 C33.3237455,52.0813023 39.5457455,58.3436279 39.5457455,66.0403721 C39.5457455,73.7389767 33.3237455,79.9994419 25.6765636,79.9994419" id="Fill-7" fill="#9D9498"></path>
                    <path d="M28.2272879,66.0411163 C28.2272879,64.6234419 27.0849242,63.4736744 25.6763788,63.4736744 C24.2678333,63.4736744 23.1254697,64.6234419 23.1254697,66.0411163 C23.1254697,67.4587907 24.2678333,68.6066977 25.6763788,68.6066977 C27.0849242,68.6066977 28.2272879,67.4587907 28.2272879,66.0411163" id="Fill-9" fill="#9D9498"></path>
                    <path d="M25.5,65 C24.6735016,65 24,65.6731477 24,66.5007882 C24,67.3268523 24.6735016,68 25.5,68 C26.3264984,68 27,67.3268523 27,66.5007882 C27,65.6731477 26.3264984,65 25.5,65 M26,70 C23.7946459,70 22,68.2056581 22,66.0006776 C22,63.7943419 23.7946459,62 26,62 C28.2053541,62 30,63.7943419 30,66.0006776 C30,68.2056581 28.2053541,70 26,70" id="Fill-11" fill="#9D9498"></path>
                    <polygon id="Fill-13" fill="#FFFFFF" points="96.1337818 30.3542326 76.0037818 30.3542326 76.0037818 9.424 89.4145394 9.424"></polygon>
                    <path d="M107.278852,66.0411163 C107.278852,59.8457674 102.289791,54.8243721 96.1343364,54.8243721 C89.9807303,54.8243721 84.9898212,59.8457674 84.9898212,66.0411163 C84.9898212,72.2346047 89.9807303,77.256 96.1343364,77.256 C102.289791,77.256 107.278852,72.2346047 107.278852,66.0411163" id="Fill-15" fill="#FFFFFF"></path>
                    <path d="M96.1337818,55.8022326 C90.5254788,55.8022326 85.9615697,60.3957209 85.9615697,66.0403721 C85.9615697,71.6868837 90.5254788,76.2785116 96.1337818,76.2785116 C101.743933,76.2785116 106.307842,71.6868837 106.307842,66.0403721 C106.307842,60.3957209 101.743933,55.8022326 96.1337818,55.8022326 M96.1337818,79.9994419 C88.4866,79.9994419 82.2646,73.7389767 82.2646,66.0403721 C82.2646,58.3436279 88.4866,52.0813023 96.1337818,52.0813023 C103.782812,52.0813023 110.004812,58.3436279 110.004812,66.0403721 C110.004812,73.7389767 103.782812,79.9994419 96.1337818,79.9994419" id="Fill-17" fill="#9D9498"></path>
                    <path d="M98.6845061,66.0411163 C98.6845061,64.6234419 97.5439909,63.4736744 96.133597,63.4736744 C94.7250515,63.4736744 93.5826879,64.6234419 93.5826879,66.0411163 C93.5826879,67.4587907 94.7250515,68.6066977 96.133597,68.6066977 C97.5439909,68.6066977 98.6845061,67.4587907 98.6845061,66.0411163" id="Fill-19" fill="#9D9498"></path>
                    <path d="M96.4992118,65 C95.6731477,65 95,65.6731477 95,66.5007882 C95,67.3268523 95.6731477,68 96.4992118,68 C97.3268523,68 98,67.3268523 98,66.5007882 C98,65.6731477 97.3268523,65 96.4992118,65 M95.9993224,70 C93.7943419,70 92,68.2056581 92,66.0006776 C92,63.7943419 93.7943419,62 95.9993224,62 C98.2056581,62 100,63.7943419 100,66.0006776 C100,68.2056581 98.2056581,70 95.9993224,70" id="Fill-21" fill="#9D9498"></path>
                    <g id="Group-25" transform="translate(66.323636, 0.000000)">
                        <mask id="mask-4" fill="white">
                            <use xlink:href="#path-3"></use>
                        </mask>
                        <g id="Clip-24"></g>
                        <path d="M1.84645152,67.9015814 C0.824239394,67.9015814 -0.00203333333,67.068093 -0.00203333333,66.0411163 L-0.00203333333,2.59553488 C-0.00203333333,1.56855814 0.824239394,0.735069767 1.84645152,0.735069767 C2.86866364,0.735069767 3.69493636,1.56855814 3.69493636,2.59553488 L3.69493636,66.0411163 C3.69493636,67.068093 2.86866364,67.9015814 1.84645152,67.9015814" id="Fill-23" fill="#9D9498" mask="url(#mask-4)"></path>
                    </g>
                    <path d="M76.0045212,32.2146977 C74.9823091,32.2146977 74.1560364,31.3812093 74.1560364,30.3542326 L74.1560364,23.5505116 C74.1560364,22.5235349 74.9823091,21.6900465 76.0045212,21.6900465 C77.0267333,21.6900465 77.8530061,22.5235349 77.8530061,23.5505116 L77.8530061,28.4937674 L94.2583091,28.4937674 L88.714703,11.2844651 L77.8530061,11.2844651 L77.8530061,13.3588837 C77.8530061,14.3858605 77.0267333,15.2193488 76.0045212,15.2193488 C74.9823091,15.2193488 74.1560364,14.3858605 74.1560364,13.3588837 L74.1560364,9.424 C74.1560364,8.39516279 74.9823091,7.56353488 76.0045212,7.56353488 L90.0585515,7.56353488 C90.8589455,7.56353488 91.5687636,8.08260465 91.8164606,8.84911628 L98.5597333,29.7793488 C98.7427333,30.3467907 98.6447636,30.9663256 98.2972485,31.448186 C97.9497333,31.9300465 97.3933394,32.2146977 96.8018242,32.2146977 L76.0045212,32.2146977 Z" id="Fill-26" fill="#9D9498"></path>
                    <mask id="mask-6" fill="white">
                        <use xlink:href="#path-5"></use>
                    </mask>
                    <g id="Clip-29"></g>
                    <polygon id="Fill-28" fill="#FDD8E7" mask="url(#mask-6)" points="9.28863636 45.8009302 61.1349394 45.8009302 61.1349394 38.4260465 9.28863636 38.4260465"></polygon>
                    <path d="M11.1371212,43.9404651 L59.2864545,43.9404651 L59.2864545,40.2865116 L11.1371212,40.2865116 L11.1371212,43.9404651 Z M61.1349394,47.6613953 L9.28863636,47.6613953 C8.26827273,47.6613953 7.44015152,46.827907 7.44015152,45.8009302 L7.44015152,38.4260465 C7.44015152,37.3990698 8.26827273,36.5655814 9.28863636,36.5655814 L61.1349394,36.5655814 C62.1571515,36.5655814 62.9834242,37.3990698 62.9834242,38.4260465 L62.9834242,45.8009302 C62.9834242,46.827907 62.1571515,47.6613953 61.1349394,47.6613953 L61.1349394,47.6613953 Z" id="Fill-30" fill="#9D9498" mask="url(#mask-6)"></path>
                    <polygon id="Fill-31" fill="#FFFFFF" mask="url(#mask-6)" points="13.6547576 38.4260465 56.7688182 38.4260465 56.7688182 11.0604651 13.6547576 11.0604651"></polygon>
                    <path d="M15.5032424,36.5655814 L54.9203333,36.5655814 L54.9203333,12.9209302 L15.5032424,12.9209302 L15.5032424,36.5655814 Z M56.7688182,40.2865116 L13.6547576,40.2865116 C12.6325455,40.2865116 11.8062727,39.4530233 11.8062727,38.4260465 L11.8062727,11.0586047 C11.8062727,10.0316279 12.6325455,9.19813953 13.6547576,9.19813953 L56.7688182,9.19813953 C57.7910303,9.19813953 58.617303,10.0316279 58.617303,11.0586047 L58.617303,38.4260465 C58.617303,39.4530233 57.7910303,40.2865116 56.7688182,40.2865116 L56.7688182,40.2865116 Z" id="Fill-32" fill="#9D9498" mask="url(#mask-6)"></path>
                </g>
            </g>
        </g>
    </g>
</svg>