<?xml version="1.0" encoding="utf-8"?>
<!-- Generator: Adobe Illustrator 23.0.6, SVG Export Plug-In . SVG Version: 6.00 Build 0)  -->
<svg version="1.1" id="Layer_1" xmlns="http://www.w3.org/2000/svg" xmlns:xlink="http://www.w3.org/1999/xlink" x="0px" y="0px"
	 viewBox="0 0 173.1 107.3" style="enable-background:new 0 0 173.1 107.3;" xml:space="preserve">
<style type="text/css">
	.st0{fill:#504649;}
</style>
<path class="st0" d="M28.8,16.1c0.2-0.2,0.5-0.2,0.7-0.1c0.3,0.2,0.3,0.3,0.1,0.6c-0.9,1.6-2,2.7-3.5,3.2c-1.5,0.5-2.9,0.6-4.3,0.1
	c-1.4-0.5-2.5-1.4-3.5-2.7c-1-1.3-1.3-3-1.1-5c0.3-2.4,1.2-4.2,2.6-5.4c1.4-1.2,3.2-2,5.3-2.4c2.1-0.4,4.3-0.5,6.7-0.2
	c2.4,0.3,4.7,0.6,6.9,1c2.3,0.5,4.6,1.1,6.9,1.6c2.3,0.5,4.6,1,7.1,1.4c1.4-3.5,3.9-5.1,7.5-4.8c1.8,0.2,2.7,1,2.8,2.2
	c0.1,1.3-0.7,2.3-2.1,3c-0.7,0.4-1.6,0.7-2.5,0.8c-1,0.1-1.8,0.1-2.4,0c-1.5,4-2.8,8.4-4,13c-1.2,4.6-2.3,9.3-3.3,14.2
	c-1.1,4.8-2,9.7-2.9,14.5c-0.9,4.8-1.9,9.4-2.9,13.8c2.8-0.3,5.4-0.7,8-1.2c2.5-0.5,5-1.2,7.2-2.1c2.3-1,4.4-2.2,6.4-3.7
	c2-1.5,3.8-3.5,5.4-6c0.2-0.2,0.4-0.2,0.6-0.1c0.2,0.2,0.2,0.3,0,0.6c-1.7,2.5-3.6,4.6-5.6,6.3c-2,1.6-4.2,2.9-6.5,3.9
	c-2.3,1-4.8,1.7-7.5,2.1c-2.7,0.5-5.4,0.9-8.3,1.2c-0.5,2.2-1.1,4.7-1.8,7.6c-0.7,2.8-1.5,5.6-2.5,8.4c-1,2.8-2,5.6-3.3,8.3
	c-1.2,2.7-2.6,5.1-4.2,7.1c-2.2,2.9-5,4.9-8.4,6.1c-3.3,1.2-6.6,1.6-9.7,1.3c-3.1-0.4-5.8-1.6-8-3.6c-2.2-2-3.4-4.8-3.5-8.4
	c-0.2-5.1,0.9-9.3,3.4-12.6c2.5-3.3,5.6-6,9.4-8c3.8-2.1,7.9-3.6,12.3-4.5c4.5-1,8.6-1.6,12.6-2.1c1.1-4.5,2.1-9.1,3-13.9
	c1-4.8,2-9.7,3-14.6c1.1-4.9,2.2-9.7,3.3-14.4c1.2-4.7,2.5-9.1,4-13.1C49.8,9,47.3,8.6,44.7,8c-2.5-0.6-5-1.2-7.5-1.8
	c-1.9-0.4-4-0.8-6.1-1c-2.2-0.3-4.2-0.3-6,0c-1.9,0.3-3.4,0.9-4.7,2c-1.3,1.1-2.1,2.7-2.4,4.9c-0.2,1.8,0.1,3.3,1,4.5
	c0.9,1.2,1.9,2,3.1,2.4c1.2,0.4,2.5,0.4,3.7,0C27.1,18.5,28.1,17.6,28.8,16.1z M38.7,66c-3.8,0.4-7.9,1.1-12.3,2.1s-8.4,2.4-12,4.4
	c-3.7,2-6.7,4.5-9.2,7.7c-2.4,3.2-3.6,7.2-3.3,12.1C2,95.5,3,98,4.8,99.9c1.8,1.9,4,3.1,6.6,3.6c2.6,0.5,5.3,0.2,8.2-0.9
	c2.9-1.1,5.4-3,7.5-5.7c1.6-2,3-4.3,4.2-6.9c1.2-2.6,2.3-5.3,3.2-8.1c0.9-2.8,1.7-5.6,2.4-8.4C37.6,70.8,38.2,68.3,38.7,66z
	 M56.2,8.4c0.5,0.1,1.2,0.1,2.1,0c0.8-0.1,1.6-0.3,2.2-0.5c1.2-0.5,1.7-1.3,1.6-2.2c-0.1-1-0.8-1.4-2.1-1.4c-1.2,0-2,0.5-2.5,1.4
	C56.9,6.7,56.5,7.6,56.2,8.4z M169,2.4c0.3-0.3,0.6-0.3,0.9-0.1c0.3,0.2,0.4,0.4,0.1,0.7c-2.8,4.1-5.4,9.2-8.1,15.4
	c-2.6,6.2-5,12.7-7.2,19.5c-2.2,6.8-4.1,13.6-5.7,20.2c-1.6,6.6-2.9,12.4-3.8,17.4c0.7,1.1,1.4,2.2,2.3,3.5c0.9,1.3,1.6,2.7,2.2,4
	c0.6,1.4,1,2.8,1.3,4.1c0.3,1.4,0.2,2.7-0.2,3.8c-0.7,1.8-1.7,2.9-3.2,3.2c-1.4,0.3-2.7-0.2-3.7-1.7c-1.1-1.6-1.4-3.6-1.2-6.2
	c0.3-2.6,0.5-4.7,0.8-6.4c-4.1-7-8.9-13.6-14.5-19.9c-5.6-6.3-10.6-12.9-15.1-19.9c-0.4,2.9-1,6.4-1.8,10.5c-0.8,4.1-1.8,8.5-3,13.1
	c-1.2,4.6-2.6,9.2-4.2,13.9c-1.6,4.7-3.5,8.9-5.7,12.8c-2.2,3.9-4.6,7.2-7.4,9.8c-2.8,2.7-5.8,4.4-9.1,5c-4.2,0.8-7.6,0-10.1-2.3
	c-2.6-2.3-3.9-5.1-3.9-8.3c-0.1-3.2,1.3-6.5,4-9.7s7.4-5.5,13.8-6.7c0.4-0.1,0.6,0,0.7,0.3c0.1,0.3-0.1,0.6-0.5,0.7
	c-6,1.1-10.4,3.1-13,6.1c-2.6,3-3.9,6.1-3.9,9.2c0,3.1,1.2,5.7,3.4,7.8c2.3,2.1,5.4,2.8,9.4,2c3.2-0.7,6.1-2.3,8.8-5
	c2.7-2.7,5.1-6,7.2-9.9c2.1-3.9,4-8.3,5.6-13c1.6-4.7,3.1-9.4,4.2-14.1c1.2-4.7,2.1-9.1,2.9-13.2c0.7-4.1,1.3-7.6,1.7-10.3
	c-0.9-1.6-1.9-3.5-3.1-5.7c-1.1-2.2-2.1-4.6-3-7c-0.9-2.4-1.4-4.9-1.6-7.3c-0.2-2.4,0.1-4.6,0.9-6.6c0.7-1.6,1.8-2.8,3.3-3.6
	c1.6-0.9,3-0.3,4.1,1.7c0.8,1.2,1.3,2.8,1.5,4.9c0.2,2.1,0.3,4.3,0.3,6.5c0,2.2-0.1,4.4-0.3,6.6c-0.2,2.2-0.4,4-0.5,5.4
	c2,3.7,4.2,7.2,6.6,10.6c2.4,3.4,5,6.8,7.7,10c2.7,3.3,5.3,6.6,8,9.8c2.6,3.3,5.1,6.6,7.5,10c0.9-5,2.2-10.8,3.8-17.4
	c1.6-6.6,3.5-13.3,5.7-20s4.5-13.1,7.1-19.2C163.6,11.5,166.2,6.4,169,2.4z M112.7,10.6c-0.4-0.7-0.8-1-1.1-0.9
	c-0.3,0.1-0.6,0.3-0.9,0.7c-0.3,0.4-0.5,0.9-0.7,1.5c-0.2,0.6-0.3,1.1-0.3,1.5c-0.5,3-0.3,6.2,0.6,9.5c0.9,3.3,2,6.3,3.3,9
	c0.1-1.2,0.3-2.8,0.5-4.8c0.2-2,0.3-4.1,0.3-6.1c0-2-0.1-4-0.4-5.9C113.8,13.2,113.3,11.7,112.7,10.6z M144.2,81.5
	c-0.1,1.3-0.3,3.1-0.6,5.2c-0.3,2.2,0.1,3.9,1,5.2c0.7,1,1.3,1.4,1.9,1.2c0.6-0.3,1-0.9,1.1-2c0.1-1.4-0.2-3.1-1.1-5
	C145.6,84.2,144.8,82.7,144.2,81.5z M82.7,51.2c1.1,1.8,2.4,3.6,3.8,5.2c1.5,1.7,3,3.2,4.6,4.6c0.3-1.2,0.5-2.5,0.7-3.9
	c0.1-1.5,0.1-3,0-4.7c0-0.2,0.1-0.3,0.3-0.3s0.3,0.1,0.3,0.3c0.1,3.6-0.2,6.6-0.9,9c1.2,1.1,2.5,2.1,3.7,3.1c1.2,1,2.4,1.8,3.5,2.6
	c0.1,0.1,0.1,0.3,0,0.4c-0.1,0.1-0.2,0.1-0.3,0c-1.1-0.8-2.3-1.6-3.5-2.5c-1.2-0.9-2.4-1.9-3.6-3c-0.7,2.7-2,4.9-3.9,6.7
	c-1.9,1.8-4.3,2.6-7.2,2.4c-1.2-0.1-2.3-0.3-3.4-0.8c-1.1-0.5-2-1.1-2.9-1.9c-0.8-0.8-1.5-1.7-2-2.7c-0.5-1-0.7-2.2-0.7-3.4
	c0-1.6,0.3-2.9,0.9-4.1c0.6-1.2,1.4-2.3,2.4-3.2c1-0.9,2.1-1.8,3.3-2.5c1.2-0.7,2.4-1.5,3.6-2.2c-0.8-1.6-1.3-3.2-1.6-5
	c-0.3-1.8,0-3.5,0.8-5.2c0.6-1.5,1.6-2.5,2.7-3.2c1.2-0.6,2.3-0.8,3.4-0.6c1.1,0.2,2,0.9,2.8,1.9c0.8,1,1.1,2.4,1.1,4.2
	c-0.1,1.2-0.4,2.2-0.9,3.1c-0.5,0.9-1.2,1.7-1.9,2.3c-0.8,0.7-1.6,1.3-2.6,1.8C84.5,50.1,83.6,50.7,82.7,51.2z M91,61.6
	c-1.6-1.5-3.2-3.1-4.7-4.8c-1.5-1.7-2.9-3.5-4-5.4c-1,0.6-2.1,1.2-3.1,1.9c-1,0.7-2,1.4-2.8,2.3c-0.8,0.8-1.5,1.8-2,2.9
	c-0.5,1.1-0.8,2.3-0.8,3.6c0,1.9,0.7,3.7,2,5.4c1.4,1.7,3,2.6,4.9,3c1.3,0.2,2.5,0.1,3.6-0.4c1.1-0.5,2.1-1.1,3-2
	c0.9-0.9,1.7-1.9,2.3-3C90.2,63.9,90.7,62.8,91,61.6z M82.1,49.9c0.8-0.5,1.5-0.9,2.3-1.4c0.7-0.5,1.4-1,2-1.7
	c0.6-0.6,1.1-1.3,1.6-2c0.4-0.7,0.6-1.6,0.6-2.6c0.1-1.5-0.2-2.7-0.7-3.6c-0.6-0.9-1.2-1.4-2-1.6c-0.8-0.2-1.6,0-2.4,0.4
	c-0.8,0.5-1.6,1.3-2.1,2.6c-0.7,1.6-1,3.3-0.7,5C80.8,46.8,81.3,48.4,82.1,49.9z"/>
<title>Jemima &amp; Nicolaos</title>
<desc>Created with Sketch.</desc>
<g id="Logo">
	<g id="Home" transform="translate(-369.000000, -342.000000)">
		<g id="Group-2" transform="translate(392.000000, 323.000000)">
		</g>
	</g>
</g>
</svg>
