<?xml version="1.0" encoding="UTF-8"?>
<svg width="60px" height="28px" viewBox="0 0 60 28" version="1.1" xmlns="http://www.w3.org/2000/svg" xmlns:xlink="http://www.w3.org/1999/xlink">
    <!-- Generator: Sketch 61.2 (89653) - https://sketch.com -->
    <title>Car</title>
    <desc>Created with Sketch.</desc>
    <defs>
        <polygon id="path-1" points="0.0001 0.6732 59.0141 0.6732 59.0141 28 0.0001 28"></polygon>
    </defs>
    <g id="Logo" stroke="none" stroke-width="1" fill="none" fill-rule="evenodd">
        <g id="FAQ" transform="translate(-371.000000, -1315.000000)">
            <g id="Car" transform="translate(371.000000, 1314.000000)">
                <path d="M21.6805,15.6514 L16.0205,15.6514 L16.0205,3.7724 C16.0205,2.7194 16.8735,1.8654 17.9275,1.8654 C18.8675,1.8654 19.6685,2.5524 19.8115,3.4834 L21.6805,15.6514 Z" id="Fill-1" fill="#FDD8E7"></path>
                <path d="M42.9598,11.6099 L38.8248,4.4769 C38.6198,4.1239 38.2418,3.9059 37.8328,3.9059 C37.0468,3.9059 36.4938,4.6789 36.7478,5.4229 L39.2678,12.7969 L42.9598,12.7969 L42.9598,11.6099" id="Fill-5" fill="#FFFFFF"></path>
                <path d="M55.8006,15.691 C55.8006,14.294 54.7626,13.115 53.3766,12.938 L42.9596,11.61 L19.0446,11.61 C18.1316,11.61 17.3906,10.869 17.3906,9.956 C17.3906,8.971 16.5356,8.204 15.5576,8.312 L5.0756,9.458 C3.9506,9.581 3.0986,10.532 3.0986,11.664 L3.0986,18.874 L1.9836,18.874 C1.3656,18.874 0.8656,19.374 0.8656,19.99 L0.8656,21.253 C0.8656,21.911 1.3996,22.444 2.0576,22.444 L55.8006,22.444 L55.8006,15.691 Z" id="Fill-9" fill="#B9D9FF"></path>
                <path d="M3.0985,18.8736 L1.9835,18.8736 C1.9465,18.8736 1.9115,18.8756 1.8755,18.8796 C1.8505,18.8816 1.8265,18.8856 1.8015,18.8896 C1.7925,18.8916 1.7845,18.8926 1.7755,18.8936 C1.7445,18.8996 1.7125,18.9066 1.6825,18.9156 C1.6815,18.9156 1.6805,18.9166 1.6795,18.9166 C1.6475,18.9256 1.6165,18.9356 1.5855,18.9476 C1.5565,18.9586 1.5285,18.9706 1.5005,18.9836 C1.4665,18.9996 1.4345,19.0186 1.4025,19.0376 C1.3695,19.0576 1.3385,19.0786 1.3095,19.1016 L1.3095,19.1016 C1.2715,19.1306 1.2355,19.1606 1.2005,19.1936 C1.1985,19.1956 1.1955,19.1986 1.1935,19.2006 C1.1595,19.2356 1.1265,19.2726 1.0975,19.3116 C1.0535,19.3696 1.0145,19.4316 0.9825,19.4976 C0.9635,19.5356 0.9465,19.5746 0.9325,19.6146 C0.9155,19.6606 0.9025,19.7066 0.8915,19.7546 C0.8895,19.7636 0.8885,19.7736 0.8855,19.7836 C0.8815,19.8076 0.8775,19.8326 0.8745,19.8576 C0.8735,19.8676 0.8715,19.8766 0.8705,19.8876 C0.8685,19.9216 0.8665,19.9556 0.8665,19.9906 L0.8665,21.2526 C0.8665,21.3756 0.8845,21.4956 0.9195,21.6066 C0.9425,21.6826 0.9735,21.7536 1.0105,21.8206 C1.0285,21.8546 1.0485,21.8876 1.0705,21.9186 C1.1135,21.9826 1.1615,22.0416 1.2155,22.0956 C1.2425,22.1226 1.2705,22.1476 1.2995,22.1716 C1.3585,22.2206 1.4215,22.2636 1.4905,22.3006 C1.6595,22.3926 1.8525,22.4446 2.0585,22.4446 L55.8005,22.4446 L55.8005,18.8736 L3.0985,18.8736 Z" id="Fill-11" fill="#99C8FF"></path>
                <path d="M53.3768,12.9381 L48.2318,12.2821 C49.1548,12.7391 49.7768,13.6871 49.7768,14.7671 L49.7768,22.4441 L55.8008,22.4441 L55.8008,15.6911 C55.8008,14.2941 54.7628,13.1151 53.3768,12.9381" id="Fill-13" fill="#97C7FF"></path>
                <path d="M57.162,19.0274 L49.777,19.0274 L49.777,22.4444 L57.075,22.4444 C57.668,22.4444 58.148,21.9644 58.148,21.3714 L58.148,20.0144 C58.148,19.4684 57.707,19.0274 57.162,19.0274" id="Fill-15" fill="#F6E1E6"></path>
                <path d="M51.8661,21.8936 C51.8661,24.9696 49.3721,27.4626 46.2971,27.4626 C43.2201,27.4626 40.7271,24.9696 40.7271,21.8936 C40.7271,18.8176 43.2201,16.3236 46.2971,16.3236 C49.3721,16.3236 51.8661,18.8176 51.8661,21.8936" id="Fill-17" fill="#BCA798"></path>
                <path d="M48.5243,21.8936 C48.5243,23.1236 47.5273,24.1216 46.2963,24.1216 C45.0663,24.1216 44.0693,23.1236 44.0693,21.8936 C44.0693,20.6636 45.0663,19.6656 46.2963,19.6656 C47.5273,19.6656 48.5243,20.6636 48.5243,21.8936" id="Fill-21" fill="#FFFFFF"></path>
                <path d="M1.9833,18.8736 C1.8423,18.8736 1.7093,18.9006 1.5863,18.9476 C1.5563,18.9586 1.5283,18.9706 1.5013,18.9836 C1.4323,19.0166 1.3693,19.0556 1.3093,19.1016 C1.2703,19.1306 1.2343,19.1606 1.2003,19.1946 C1.1983,19.1966 1.1953,19.1986 1.1933,19.2006 C1.1423,19.2506 1.0963,19.3066 1.0573,19.3666 C1.0373,19.3956 1.0183,19.4266 1.0013,19.4576 C0.9663,19.5216 0.9383,19.5886 0.9163,19.6586 C0.8833,19.7636 0.8663,19.8746 0.8663,19.9906 L0.8663,21.2526 C0.8663,21.9116 1.3993,22.4446 2.0573,22.4446 L9.3163,22.4446 L9.3163,18.8736 L1.9833,18.8736 Z" id="Fill-23" fill="#F6E1E6"></path>
                <path d="M17.6844,21.8936 C17.6844,24.9696 15.1914,27.4626 12.1164,27.4626 C9.0384,27.4626 6.5454,24.9696 6.5454,21.8936 C6.5454,18.8176 9.0384,16.3236 12.1164,16.3236 C15.1914,16.3236 17.6844,18.8176 17.6844,21.8936" id="Fill-25" fill="#FFFFFF"></path>
                <path d="M17.6844,21.8936 C17.6844,24.9696 15.1914,27.4626 12.1164,27.4626 C9.0384,27.4626 6.5454,24.9696 6.5454,21.8936 C6.5454,18.8176 9.0384,16.3236 12.1164,16.3236 C15.1914,16.3236 17.6844,18.8176 17.6844,21.8936" id="Fill-27" fill="#BCA798"></path>
                <path d="M14.3426,21.8936 C14.3426,23.1236 13.3456,24.1216 12.1156,24.1216 C10.8856,24.1216 9.8876,23.1236 9.8876,21.8936 C9.8876,20.6636 10.8856,19.6656 12.1156,19.6656 C13.3456,19.6656 14.3426,20.6636 14.3426,21.8936" id="Fill-31" fill="#FFFFFF"></path>
                <path d="M21.1034,14.1246 L19.3324,14.1246 C18.8544,14.1246 18.4664,14.5116 18.4664,14.9906 C18.4664,15.4686 18.8544,15.8566 19.3324,15.8566 L21.1034,15.8566 C21.5814,15.8566 21.9694,15.4686 21.9694,14.9906 C21.9694,14.5116 21.5814,14.1246 21.1034,14.1246" id="Fill-33" fill="#4F4549"></path>
                <g id="Group-37" transform="translate(0.000000, 0.327000)">
                    <mask id="mask-2" fill="white">
                        <use xlink:href="#path-1"></use>
                    </mask>
                    <g id="Clip-36"></g>
                    <path d="M57.2821,21.0442 C57.2821,21.1582 57.1891,21.2512 57.0751,21.2512 L52.7231,21.2512 C52.7141,21.0502 52.6931,20.8502 52.6651,20.6492 C52.6641,20.6472 52.6641,20.6432 52.6631,20.6402 C52.6491,20.5472 52.6341,20.4552 52.6161,20.3632 C52.6111,20.3362 52.6061,20.3112 52.6001,20.2842 C52.5881,20.2232 52.5751,20.1612 52.5601,20.1002 C52.5521,20.0662 52.5451,20.0322 52.5361,19.9982 C52.5161,19.9202 52.4961,19.8432 52.4731,19.7672 C52.4631,19.7272 52.4501,19.6882 52.4381,19.6482 C52.4281,19.6212 52.4211,19.5932 52.4121,19.5662 L57.1621,19.5662 C57.2281,19.5662 57.2821,19.6202 57.2821,19.6882 L57.2821,21.0442 Z M51.5311,17.8232 C51.4931,17.7702 51.4541,17.7182 51.4141,17.6662 C51.3911,17.6362 51.3691,17.6072 51.3461,17.5782 C51.3111,17.5352 51.2771,17.4922 51.2421,17.4492 C51.2081,17.4082 51.1731,17.3682 51.1371,17.3282 C51.1091,17.2962 51.0821,17.2632 51.0531,17.2312 C50.9901,17.1632 50.9261,17.0952 50.8601,17.0292 C50.8561,17.0242 50.8511,17.0202 50.8471,17.0162 C50.8301,16.9982 50.8101,16.9812 50.7931,16.9632 C50.7321,16.9052 50.6731,16.8472 50.6111,16.7912 C50.5941,16.7752 50.5751,16.7612 50.5571,16.7452 C50.4931,16.6882 50.4281,16.6302 50.3611,16.5772 C50.3551,16.5722 50.3491,16.5672 50.3431,16.5632 C49.2011,15.6362 47.7881,15.1312 46.2971,15.1312 C44.8031,15.1312 43.3871,15.6372 42.2451,16.5662 C42.2411,16.5702 42.2371,16.5732 42.2331,16.5762 C42.1621,16.6342 42.0921,16.6952 42.0231,16.7562 C42.0101,16.7682 41.9971,16.7792 41.9841,16.7912 C41.9031,16.8642 41.8231,16.9392 41.7461,17.0162 C41.6711,17.0912 41.5981,17.1682 41.5271,17.2462 C41.5041,17.2722 41.4821,17.2982 41.4591,17.3252 C41.4131,17.3772 41.3661,17.4302 41.3211,17.4852 C41.2971,17.5152 41.2731,17.5462 41.2491,17.5772 C41.2081,17.6282 41.1671,17.6802 41.1271,17.7342 C41.1041,17.7642 41.0831,17.7952 41.0611,17.8262 C41.0211,17.8812 40.9821,17.9362 40.9441,17.9932 C40.9261,18.0212 40.9081,18.0492 40.8891,18.0772 C40.8491,18.1392 40.8111,18.2012 40.7721,18.2652 C40.7601,18.2872 40.7461,18.3102 40.7321,18.3332 C40.6911,18.4042 40.6501,18.4772 40.6111,18.5502 C40.6041,18.5652 40.5961,18.5792 40.5891,18.5932 C40.5451,18.6782 40.5031,18.7642 40.4621,18.8512 C40.4611,18.8542 40.4591,18.8562 40.4581,18.8592 C40.1111,19.6072 39.9091,20.4172 39.8681,21.2512 L18.5441,21.2512 C18.5041,20.4172 18.3011,19.6062 17.9541,18.8582 C17.9531,18.8562 17.9511,18.8542 17.9511,18.8532 C17.9101,18.7652 17.8671,18.6782 17.8221,18.5922 C17.8151,18.5782 17.8071,18.5652 17.8011,18.5512 C17.7611,18.4772 17.7201,18.4042 17.6781,18.3312 C17.6661,18.3102 17.6531,18.2882 17.6401,18.2662 C17.6011,18.2022 17.5611,18.1382 17.5201,18.0752 C17.5041,18.0482 17.4861,18.0222 17.4691,17.9942 C17.4291,17.9372 17.3891,17.8802 17.3491,17.8232 C17.3281,17.7942 17.3061,17.7642 17.2861,17.7352 C17.2451,17.6812 17.2031,17.6272 17.1611,17.5752 C17.1371,17.5442 17.1151,17.5152 17.0911,17.4852 C17.0451,17.4302 16.9981,17.3772 16.9511,17.3222 C16.9281,17.2972 16.9071,17.2712 16.8851,17.2462 C16.8141,17.1682 16.7411,17.0912 16.6661,17.0172 C15.4511,15.8002 13.8351,15.1312 12.1151,15.1312 C10.3961,15.1312 8.7801,15.8002 7.5641,17.0162 C7.4891,17.0912 7.4161,17.1682 7.3451,17.2462 C7.3231,17.2722 7.3021,17.2972 7.2791,17.3232 C7.2311,17.3772 7.1841,17.4302 7.1391,17.4852 C7.1151,17.5152 7.0921,17.5462 7.0681,17.5762 C7.0401,17.6102 7.0111,17.6452 6.9851,17.6802 L3.9651,17.6802 L3.9651,11.3362 C3.9651,10.6452 4.4831,10.0672 5.1711,9.9922 L15.6511,8.8452 C15.7191,8.8382 15.7871,8.8402 15.8531,8.8502 C15.8591,8.8512 15.8661,8.8532 15.8721,8.8552 C16.0111,8.8782 16.1371,8.9392 16.2401,9.0232 C16.2431,9.0252 16.2461,9.0272 16.2481,9.0302 C16.2801,9.0572 16.3091,9.0862 16.3371,9.1192 C16.3401,9.1222 16.3431,9.1252 16.3441,9.1282 C16.3991,9.1942 16.4431,9.2702 16.4741,9.3512 C16.4751,9.3542 16.4761,9.3562 16.4761,9.3582 C16.4911,9.3982 16.5031,9.4402 16.5111,9.4822 C16.5111,9.4872 16.5121,9.4932 16.5131,9.4982 C16.5201,9.5412 16.5251,9.5852 16.5251,9.6292 C16.5251,11.0182 17.6551,12.1482 19.0451,12.1482 L42.9051,12.1482 L53.2661,13.4702 C54.2181,13.5912 54.9341,14.4062 54.9341,15.3642 L54.9341,17.8352 L51.5391,17.8352 C51.5361,17.8312 51.5331,17.8272 51.5311,17.8232 L51.5311,17.8232 Z M49.6231,24.8932 C47.7891,26.7272 44.8041,26.7272 42.9701,24.8932 C41.5461,23.4672 41.2281,21.3482 42.0181,19.6132 C42.0251,19.6002 42.0311,19.5862 42.0371,19.5722 C42.0611,19.5212 42.0871,19.4692 42.1131,19.4182 C42.1261,19.3952 42.1371,19.3712 42.1501,19.3472 C42.1741,19.3032 42.1981,19.2592 42.2231,19.2162 C42.2401,19.1862 42.2591,19.1562 42.2761,19.1272 C42.3001,19.0882 42.3231,19.0512 42.3471,19.0132 C42.3701,18.9792 42.3921,18.9452 42.4161,18.9112 C42.4381,18.8782 42.4611,18.8452 42.4841,18.8132 C42.5121,18.7742 42.5411,18.7372 42.5701,18.7002 C42.5911,18.6722 42.6121,18.6442 42.6351,18.6162 C42.6691,18.5732 42.7051,18.5322 42.7411,18.4912 C42.7601,18.4692 42.7771,18.4472 42.7971,18.4252 C42.8531,18.3622 42.9111,18.3012 42.9701,18.2412 C43.0281,18.1852 43.0861,18.1292 43.1441,18.0762 C43.1531,18.0682 43.1611,18.0622 43.1701,18.0552 C43.2211,18.0082 43.2741,17.9632 43.3271,17.9192 C43.3291,17.9182 43.3301,17.9172 43.3321,17.9162 C44.1921,17.2152 45.2451,16.8652 46.2971,16.8652 C47.3491,16.8652 48.4011,17.2152 49.2611,17.9152 C49.2621,17.9162 49.2641,17.9182 49.2661,17.9192 C49.3191,17.9622 49.3711,18.0072 49.4231,18.0532 C49.4311,18.0612 49.4401,18.0682 49.4491,18.0762 C49.5081,18.1282 49.5641,18.1832 49.6201,18.2392 C49.6211,18.2402 49.6221,18.2402 49.6231,18.2412 C49.6231,18.2412 49.6231,18.2422 49.6241,18.2422 C49.6871,18.3052 49.7481,18.3712 49.8071,18.4382 C49.8221,18.4532 49.8361,18.4702 49.8491,18.4862 C49.8961,18.5402 49.9431,18.5962 49.9871,18.6532 C49.9991,18.6672 50.0101,18.6812 50.0201,18.6952 C50.0701,18.7582 50.1171,18.8232 50.1631,18.8902 C50.1681,18.8972 50.1741,18.9052 50.1781,18.9122 C50.2311,18.9892 50.2821,19.0672 50.3301,19.1472 C50.3311,19.1482 50.3321,19.1502 50.3331,19.1512 C50.3351,19.1552 50.3371,19.1582 50.3391,19.1612 C50.3511,19.1812 50.3621,19.2022 50.3741,19.2222 C50.3981,19.2652 50.4221,19.3072 50.4451,19.3502 C50.4571,19.3732 50.4691,19.3952 50.4801,19.4182 C50.5011,19.4602 50.5221,19.5012 50.5421,19.5432 C50.5531,19.5662 50.5641,19.5902 50.5751,19.6142 C50.5951,19.6562 50.6131,19.6992 50.6311,19.7422 C50.6401,19.7652 50.6501,19.7882 50.6601,19.8112 C50.6841,19.8722 50.7081,19.9342 50.7291,19.9972 C50.7401,20.0252 50.7491,20.0542 50.7591,20.0842 C50.7711,20.1212 50.7831,20.1582 50.7951,20.1952 C50.8031,20.2272 50.8131,20.2582 50.8221,20.2912 L50.8511,20.3992 C50.8591,20.4302 50.8671,20.4602 50.8741,20.4912 C50.8841,20.5332 50.8921,20.5752 50.9011,20.6172 C50.9061,20.6412 50.9121,20.6662 50.9161,20.6902 C51.1941,22.1672 50.7641,23.7522 49.6231,24.8932 L49.6231,24.8932 Z M15.4411,24.8932 C13.6071,26.7272 10.6231,26.7272 8.7891,24.8932 C7.5861,23.6902 7.1721,21.9922 7.5481,20.4482 C7.5491,20.4432 7.5501,20.4382 7.5521,20.4332 C7.5671,20.3712 7.5841,20.3082 7.6011,20.2462 C7.6091,20.2212 7.6171,20.1972 7.6251,20.1722 C7.6371,20.1292 7.6511,20.0872 7.6661,20.0452 C7.6761,20.0162 7.6861,19.9872 7.6961,19.9582 C7.7101,19.9192 7.7231,19.8822 7.7381,19.8452 C7.7511,19.8152 7.7621,19.7852 7.7751,19.7552 C7.7901,19.7182 7.8061,19.6822 7.8221,19.6462 C7.8361,19.6162 7.8481,19.5872 7.8621,19.5582 C7.8811,19.5202 7.8991,19.4822 7.9191,19.4432 C7.9261,19.4312 7.9311,19.4172 7.9381,19.4042 C7.9481,19.3842 7.9591,19.3652 7.9691,19.3462 C7.9921,19.3032 8.0161,19.2592 8.0411,19.2172 C8.0571,19.1892 8.0741,19.1602 8.0921,19.1322 C8.0961,19.1232 8.1011,19.1152 8.1071,19.1072 C8.1261,19.0752 8.1451,19.0442 8.1651,19.0142 C8.1871,18.9792 8.2111,18.9442 8.2341,18.9102 C8.2571,18.8772 8.2791,18.8452 8.3031,18.8132 C8.3301,18.7742 8.3591,18.7362 8.3881,18.7002 C8.4091,18.6712 8.4301,18.6432 8.4521,18.6162 C8.4861,18.5732 8.5221,18.5322 8.5581,18.4912 C8.5781,18.4692 8.5951,18.4462 8.6151,18.4252 C8.6711,18.3622 8.7291,18.3012 8.7891,18.2412 C9.6781,17.3532 10.8591,16.8632 12.1151,16.8632 C12.2721,16.8632 12.4281,16.8712 12.5821,16.8862 C13.6621,16.9922 14.6641,17.4632 15.4411,18.2412 C15.4501,18.2492 15.4581,18.2582 15.4661,18.2672 C15.5161,18.3182 15.5661,18.3702 15.6141,18.4242 C15.6361,18.4482 15.6571,18.4752 15.6791,18.5002 C15.7121,18.5382 15.7451,18.5762 15.7761,18.6142 C15.8011,18.6442 15.8231,18.6752 15.8461,18.7052 C15.8741,18.7402 15.9001,18.7752 15.9271,18.8112 C15.9511,18.8452 15.9741,18.8802 15.9991,18.9152 C16.0201,18.9472 16.0421,18.9792 16.0631,19.0112 C16.0891,19.0502 16.1131,19.0892 16.1371,19.1292 C16.1541,19.1572 16.1711,19.1862 16.1881,19.2142 C16.2141,19.2592 16.2391,19.3032 16.2621,19.3492 C16.2741,19.3712 16.2871,19.3942 16.2981,19.4162 C16.3251,19.4682 16.3501,19.5212 16.3761,19.5732 C16.3811,19.5862 16.3861,19.5982 16.3921,19.6102 C17.1831,21.3462 16.8671,23.4672 15.4411,24.8932 L15.4411,24.8932 Z M5.6861,21.2512 L2.0571,21.2512 C1.8781,21.2512 1.7321,21.1052 1.7321,20.9252 L1.7321,19.6632 C1.7321,19.6402 1.7361,19.6192 1.7421,19.5982 C1.7441,19.5902 1.7461,19.5822 1.7491,19.5742 C1.7521,19.5682 1.7541,19.5642 1.7561,19.5582 C1.7671,19.5322 1.7841,19.5082 1.8031,19.4892 C1.8041,19.4872 1.8051,19.4862 1.8061,19.4862 L1.8111,19.4812 C1.8141,19.4782 1.8171,19.4762 1.8211,19.4742 C1.8241,19.4712 1.8281,19.4682 1.8331,19.4642 C1.8451,19.4542 1.8601,19.4452 1.8741,19.4392 C1.8811,19.4362 1.8861,19.4332 1.8941,19.4302 C1.9101,19.4242 1.9241,19.4202 1.9381,19.4172 C1.9521,19.4152 1.9661,19.4132 1.9801,19.4132 C1.9811,19.4132 1.9821,19.4132 1.9831,19.4132 L6.0511,19.4122 C6.0521,19.4122 6.0501,19.4122 6.0511,19.4122 C5.8421,20.0002 5.7171,20.6192 5.6861,21.2512 L5.6861,21.2512 Z M16.8861,3.4452 C16.8861,2.8712 17.3531,2.4042 17.9281,2.4042 C18.4441,2.4042 18.8771,2.7762 18.9551,3.2872 L20.0521,10.4172 L19.0451,10.4172 C18.6101,10.4172 18.2571,10.0632 18.2571,9.6292 C18.2571,9.5752 18.2551,9.5232 18.2511,9.4692 C18.2501,9.4502 18.2491,9.4322 18.2471,9.4132 C18.2441,9.3802 18.2411,9.3472 18.2361,9.3152 C18.2341,9.2912 18.2311,9.2682 18.2271,9.2442 C18.2231,9.2192 18.2191,9.1942 18.2141,9.1692 C18.2031,9.1102 18.1901,9.0522 18.1761,8.9942 C18.1731,8.9852 18.1721,8.9772 18.1691,8.9692 C18.1591,8.9312 18.1471,8.8952 18.1361,8.8582 C18.1341,8.8512 18.1311,8.8432 18.1291,8.8362 C18.0741,8.6722 18.0041,8.5172 17.9201,8.3692 L17.9171,8.3652 C17.8331,8.2202 17.7341,8.0842 17.6231,7.9582 C17.6161,7.9502 17.6081,7.9412 17.6001,7.9332 C17.5781,7.9082 17.5541,7.8832 17.5301,7.8592 C17.5181,7.8472 17.5071,7.8352 17.4951,7.8232 C17.4711,7.8012 17.4491,7.7792 17.4251,7.7572 C17.4231,7.7562 17.4211,7.7542 17.4191,7.7522 C17.4061,7.7412 17.3931,7.7312 17.3811,7.7202 C17.3441,7.6882 17.3061,7.6572 17.2671,7.6282 C17.2461,7.6112 17.2231,7.5942 17.2011,7.5782 C17.1821,7.5652 17.1621,7.5512 17.1421,7.5382 C17.1181,7.5222 17.0931,7.5052 17.0681,7.4892 C17.0511,7.4792 17.0321,7.4672 17.0131,7.4572 C16.9791,7.4372 16.9441,7.4182 16.9091,7.3992 C16.9011,7.3952 16.8931,7.3902 16.8861,7.3862 L16.8861,3.4452 Z M37.5671,4.8162 C37.5271,4.6972 37.5741,4.6062 37.6041,4.5622 C37.6361,4.5182 37.7081,4.4442 37.8331,4.4442 C37.9331,4.4442 38.0261,4.4982 38.0761,4.5842 L41.4571,10.4172 L39.4811,10.4172 L37.5671,4.8162 Z M57.1621,17.8352 L56.6661,17.8352 L56.6661,15.3642 C56.6661,13.5362 55.3001,11.9832 53.4861,11.7522 L43.4941,10.4782 L39.5741,3.7162 C39.2161,3.0972 38.5491,2.7122 37.8331,2.7122 C37.1841,2.7122 36.5731,3.0272 36.1961,3.5542 C35.8181,4.0822 35.7191,4.7632 35.9281,5.3762 L37.6501,10.4172 L21.8031,10.4172 L20.6681,3.0242 C20.4581,1.6622 19.3051,0.6732 17.9281,0.6732 C16.3981,0.6732 15.1541,1.9172 15.1541,3.4452 L15.1541,7.1572 L4.9821,8.2702 C3.4151,8.4412 2.2331,9.7602 2.2331,11.3362 L2.2331,17.6812 L1.9831,17.6812 C1.9191,17.6812 1.8551,17.6842 1.7931,17.6902 C1.7631,17.6932 1.7341,17.6982 1.7051,17.7022 C1.6741,17.7072 1.6411,17.7112 1.6101,17.7172 C1.5721,17.7242 1.5351,17.7332 1.4981,17.7432 C1.4761,17.7492 1.4551,17.7532 1.4331,17.7602 C1.3921,17.7722 1.3511,17.7852 1.3111,17.7992 C1.3011,17.8032 1.2891,17.8062 1.2791,17.8112 C1.2721,17.8132 1.2661,17.8162 1.2601,17.8192 C1.2241,17.8332 1.1891,17.8482 1.1541,17.8642 C1.1451,17.8682 1.1361,17.8722 1.1261,17.8762 C1.1181,17.8802 1.1101,17.8862 1.1011,17.8902 C1.0591,17.9112 1.0181,17.9322 0.9781,17.9562 C0.9611,17.9672 0.9431,17.9772 0.9261,17.9892 C0.8881,18.0122 0.8531,18.0372 0.8181,18.0632 C0.8071,18.0692 0.7971,18.0762 0.7861,18.0842 C0.7721,18.0942 0.7601,18.1052 0.7461,18.1162 C0.7341,18.1262 0.7221,18.1342 0.7121,18.1442 C0.6771,18.1722 0.6431,18.2012 0.6101,18.2332 C0.6001,18.2422 0.5911,18.2522 0.5811,18.2612 C0.4911,18.3512 0.4101,18.4502 0.3401,18.5532 C0.3041,18.6052 0.2701,18.6602 0.2401,18.7172 C0.1781,18.8312 0.1281,18.9502 0.0901,19.0742 C0.0711,19.1302 0.0571,19.1882 0.0451,19.2462 C0.0421,19.2632 0.0381,19.2802 0.0361,19.2972 C0.0271,19.3402 0.0201,19.3842 0.0151,19.4282 C0.0121,19.4462 0.0111,19.4632 0.0091,19.4822 C0.0041,19.5422 0.0001,19.6022 0.0001,19.6632 L0.0001,20.9252 C0.0001,22.0602 0.9231,22.9832 2.0571,22.9832 L5.8411,22.9832 C6.0971,24.1332 6.6721,25.2252 7.5641,26.1182 C8.8181,27.3722 10.4671,28.0002 12.1151,28.0002 C13.7631,28.0002 15.4111,27.3732 16.6661,26.1182 C17.5591,25.2252 18.1321,24.1332 18.3891,22.9832 L40.0221,22.9832 C40.2801,24.1332 40.8531,25.2252 41.7461,26.1182 C43.0011,27.3722 44.6491,28.0002 46.2971,28.0002 C47.9451,28.0002 49.5931,27.3732 50.8471,26.1182 C51.7411,25.2252 52.3141,24.1332 52.5721,22.9832 L57.0751,22.9832 C58.1441,22.9832 59.0141,22.1132 59.0141,21.0442 L59.0141,19.6882 C59.0141,18.6662 58.1831,17.8352 57.1621,17.8352 L57.1621,17.8352 Z" id="Fill-35" fill="#9D9498" mask="url(#mask-2)"></path>
                </g>
                <path d="M46.2967,23.2559 C45.5467,23.2559 44.9357,22.6459 44.9357,21.8939 C44.9357,21.1439 45.5467,20.5329 46.2967,20.5329 C47.0477,20.5329 47.6577,21.1439 47.6577,21.8939 C47.6577,22.6459 47.0477,23.2559 46.2967,23.2559 M46.2967,18.8009 C44.5917,18.8009 43.2027,20.1889 43.2027,21.8939 C43.2027,23.5999 44.5917,24.9879 46.2967,24.9879 C48.0027,24.9879 49.3907,23.5999 49.3907,21.8939 C49.3907,20.1889 48.0027,18.8009 46.2967,18.8009" id="Fill-38" fill="#9D9498"></path>
                <path d="M12.1151,23.2559 C11.3641,23.2559 10.7541,22.6459 10.7541,21.8939 C10.7541,21.1439 11.3641,20.5329 12.1151,20.5329 C12.8661,20.5329 13.4761,21.1439 13.4761,21.8939 C13.4761,22.6459 12.8661,23.2559 12.1151,23.2559 M12.1151,18.8009 C10.4091,18.8009 9.0211,20.1889 9.0211,21.8939 C9.0211,23.5999 10.4091,24.9879 12.1151,24.9879 C13.8211,24.9879 15.2091,23.5999 15.2091,21.8939 C15.2091,20.1889 13.8211,18.8009 12.1151,18.8009" id="Fill-40" fill="#9D9498"></path>
            </g>
        </g>
    </g>
</svg>